<?xml version="1.0" encoding="utf-8"?>
<!-- Generator: Adobe Illustrator 21.0.0, SVG Export Plug-In . SVG Version: 6.00 Build 0)  -->
<svg version="1.1" id="OBJECTS" xmlns="http://www.w3.org/2000/svg" xmlns:xlink="http://www.w3.org/1999/xlink" x="0px" y="0px"
	 viewBox="0 0 750 500" style="enable-background:new 0 0 750 500;" xml:space="preserve">
<style type="text/css">
	.st0{fill:#A0C85F;}
	.st1{fill:#1FA366;}
	.st2{fill:#007963;}
	.st3{fill:#010A3F;}
	.st4{fill:#47A1D8;}
	.st5{fill:#4281B1;}
</style>
<g>
	<path class="st0" d="M415.7,438.3c-0.1-0.2-0.2-0.3-0.3-0.5l-0.1-0.1c-0.2-0.3-0.4-0.5-0.7-0.7l0,0c-0.3-0.3-0.6-0.6-0.8-0.9
		c-0.2-0.2-0.4-0.5-0.6-0.7c-0.4-0.5-0.9-0.9-1.5-1.5c-0.2-0.2-0.5-0.5-0.7-0.7c-0.3-0.3-0.5-0.5-0.8-0.8c-0.3-0.3-0.6-0.5-0.9-0.8
		c-0.2-0.2-0.5-0.5-0.7-0.7l-0.3-0.3c-0.4-0.4-0.8-0.7-1.2-1.1c-0.6-0.5-1.2-1-1.9-1.5c-0.6-0.4-1.2-0.8-1.8-1.3
		c-0.5-0.4-1.1-0.7-1.8-1.1c-1.2-0.7-2.5-1.3-4-1.9c-1.1-0.5-2.6-1-4.1-1.2c-0.9-0.1-1.6-0.2-2.3-0.2c-0.7,0-1.3,0-2.2,0
		c-0.8,0-1.5,0.1-2.1,0.3c-0.3,0.1-0.7,0.2-1,0.3c-0.3,0.1-0.7,0.2-1.1,0.4c-0.6,0.3-1.2,0.5-1.8,0.8l-0.1,0.1
		c-0.3,0.1-0.6,0.3-0.9,0.4c-0.3,0.1-0.6,0.2-0.9,0.4c-0.4,0.2-0.9,0.4-1.3,0.6c-0.2,0.1-0.4,0.2-0.6,0.3c-0.1,0.1-0.2,0.1-0.4,0.2
		c-0.1,0.1-0.3,0.1-0.4,0.2l-0.1,0.1c-0.3,0.1-0.5,0.3-0.8,0.4c-0.1,0-0.1,0.1-0.2,0.1c-0.1,0-0.1,0-0.2,0.1
		c-0.4,0.1-0.7,0.2-1.1,0.2c-0.1,0-0.3,0-0.4,0.1c-0.1,0-0.2,0-0.3,0.1c-0.2,0.1-0.3,0.2-0.3,0.4c-0.1,0.1-0.2,0.2-0.2,0.3
		c0,0.1,0,0.3,0,0.5c0.1,0.1,0.2,0.3,0.4,0.3c0.7,0.1,1.3,0.3,2.3,0.5c0.7,0.2,1.4,0.3,2.1,0.5c1.4,0.4,2.8,0.7,4.2,1.1l0.5,0.1
		c0.5,0.1,1,0.2,1.5,0.4c0.8,0.2,1.6,0.4,2.2,0.6c1.3,0.4,2.7,0.8,4.1,1.3l0.8,0.3c1.1,0.4,2.2,0.7,3.4,1.1c1,0.3,2,0.5,2.9,0.8
		c0.4,0.1,0.9,0.2,1.3,0.4c0.4,0.1,0.7,0.2,1.1,0.3c0.3,0.1,0.5,0.2,0.8,0.2c0.8,0.2,1.5,0.4,2.2,0.6c1.4,0.4,2.8,0.8,4.2,1.2
		c1.5,0.5,2.8,0.9,4.1,1.2c0.4,0.1,0.7,0.2,1,0.2c0.2,0,0.4,0.1,0.6,0.1c0.2,0,0.5,0.1,0.8,0c0.3,0,0.5-0.2,0.6-0.4
		C415.9,439,415.9,438.7,415.7,438.3C415.7,438.4,415.7,438.3,415.7,438.3L415.7,438.3L415.7,438.3z"/>
	<path class="st1" d="M381.5,447.3L381.5,447.3l-0.2-0.3l-0.2-0.3l-0.2-0.4c-0.3-0.5-0.6-1.1-0.9-1.6c-0.3-0.5-0.7-1.2-1.1-1.9
		c-0.4-0.7-0.8-1.3-1.2-1.9l0,0l0,0c-0.1-0.2-0.2-0.3-0.3-0.5c-0.5-0.8-1.1-1.6-1.7-2.4c-0.6-0.8-1.2-1.7-1.7-2.5l0,0l-0.1-0.1
		c-0.3-0.4-0.6-0.9-0.9-1.3c-0.2-0.2-0.3-0.5-0.5-0.7c-0.3-0.4-0.5-0.8-0.8-1.2c-0.6-0.8-1-1.4-1.5-2c-0.5-0.7-1-1.2-1.4-1.8
		c-0.5-0.6-0.9-1.1-1.4-1.6l0,0l0,0c-0.2-0.2-0.4-0.4-0.6-0.6l0,0l-0.1-0.1l-0.2-0.2c-0.2-0.2-0.4-0.4-0.5-0.6
		c-0.3-0.3-0.5-0.5-0.8-0.7c-0.2-0.2-0.4-0.3-0.6-0.5c-0.4-0.3-0.8-0.5-1.3-0.7c-0.2-0.1-0.3-0.1-0.5-0.1c-0.1,0-0.2,0.1-0.3,0.2
		c-0.3,0.2-0.4,0.5-0.4,0.8c0,0.1,0.1,0.2,0.1,0.3c0,0.1,0.1,0.1,0.1,0.2l0.1,0.1l0,0c0,0,0,0.1,0.1,0.1c0.1,0.1,0.2,0.2,0.2,0.3
		l0.1,0.2c0.1,0.1,0.2,0.2,0.3,0.4l0.1,0.2c0.1,0.1,0.2,0.3,0.3,0.5c0.1,0.3,0.3,0.5,0.4,0.8l0.1,0.1c0.2,0.4,0.5,1,0.7,1.6
		c0.2,0.6,0.4,1.2,0.6,1.9c0.2,0.7,0.3,1.4,0.4,2.1c0.2,1,0.4,2.1,0.6,3.1l0,0c0.1,0.4,0.1,0.8,0.2,1.2l0.1,0.5l0,0.3
		c0.1,0.5,0.2,0.9,0.2,1.4c0.1,0.4,0.1,0.8,0.2,1.2l0,0.1l0,0.1c0,0.2,0.1,0.4,0.1,0.5c0.2,1.3,0.4,2.7,0.6,4.3l0,0l0,0l0,0
		c0.1,0.6,0.1,1.3,0.2,1.9c0.1,0.7,0.1,1.4,0.2,2.1c0,0.5,0.1,0.9,0.1,1.4l0,0.1l0,0.3l0,0.5c0,0.6,0.1,1.2,0.2,2l0,0l0,0
		c0,0.1,0,0.1,0,0.1l0,0c0,0.1,0,0.1,0,0.2c0,0.1,0,0.1,0,0.1l0,0c0,0.1,0,0.2,0,0.3c0,0,0,0,0,0.1c0,0.2,0,0.4,0.1,0.5l0,0.1
		c0.1,0.4,0.1,0.8,0.2,1.2c0,0.3,0.1,0.6,0.1,0.9l0,0.3c0.1,0.4,0.1,0.8,0.2,1.2c0,0.3,0.1,0.6,0.1,0.9l0,0c0,0.4,0.1,0.8,0.2,1.2
		c0.1,0.8,0.3,1.6,0.4,2.3c0.1,0.8,0.3,1.6,0.5,2.4c0.2,0.8,0.4,1.6,0.6,2.3c0.2,0.7,0.5,1.4,0.9,2.2l0.1,0.2l0,0
		c0.1,0.2,0.2,0.5,0.4,0.8c0.2,0.4,0.4,0.8,0.6,1.1c0.4,0.7,0.8,1.4,1.2,2c0.2,0.2,0.3,0.5,0.5,0.7l0.2,0.2c0.3,0.4,0.5,0.7,0.7,1
		c0.5,0.6,1.1,1.2,1.6,1.6l0.1,0.1c0.3,0.3,0.6,0.5,0.9,0.8c0.3,0.2,0.6,0.4,0.9,0.7c0.7,0.5,1.3,0.9,1.9,1.3
		c0.6,0.4,1.1,0.7,1.7,1.1l0.2,0.1l0.2,0.1c0.8,0.5,1.4,0.9,2,1.2c0.6,0.3,1.2,0.7,1.9,1.1c0.4,0.2,0.8,0.4,1.3,0.6l0.1,0l0.1,0
		c0.2,0.1,0.4,0.2,0.6,0.3c0.7,0.3,1.5,0.7,2.2,1l0,0c0.7,0.3,1.5,0.7,2.2,0.9c0.7,0.3,1.4,0.5,2.1,0.7c0.1,0,0.2,0,0.3,0l0.1,0
		c0.2,0,0.4,0,0.5,0c0.2,0,0.3,0,0.5-0.1c0.1-0.1,0.2-0.1,0.3-0.2c0.1-0.1,0.2-0.2,0.2-0.4c0-0.1,0-0.2,0-0.4c0-0.4-0.1-0.8-0.2-1.2
		c-0.1-0.8-0.3-1.5-0.5-2.2c-0.2-0.8-0.4-1.5-0.6-2.1l-0.1-0.4c-0.2-0.5-0.4-1.2-0.6-1.8c-0.3-0.7-0.5-1.5-0.8-2.2
		c-0.2-0.5-0.4-1-0.6-1.5l0-0.1l-0.1-0.2l-0.2-0.5l-0.2-0.5l0,0c-0.3-0.8-0.6-1.5-0.9-2.3c-0.2-0.4-0.3-0.8-0.5-1.2l0-0.1l0,0
		c-0.2-0.6-0.5-1.1-0.7-1.7l0-0.1l-0.1-0.2c0,0,0-0.1,0-0.1l0-0.1c0,0,0-0.1-0.1-0.1l0,0l0-0.1c-0.3-0.7-0.5-1.4-0.9-2.3
		c-0.1-0.3-0.3-0.6-0.4-0.9l-0.1-0.2l0,0c-0.1-0.3-0.3-0.6-0.4-0.9c-0.1-0.3-0.3-0.7-0.4-1l-0.1-0.3l0-0.1c-0.1-0.2-0.2-0.4-0.3-0.7
		c-0.3-0.7-0.7-1.5-1.1-2.4l-0.2-0.3l0-0.1c-0.6-1.2-1.1-2.5-1.7-3.7l-0.3-0.6c-0.3-0.5-0.5-1-0.8-1.6c-0.2-0.5-0.4-0.9-0.7-1.4
		c-0.1-0.3-0.2-0.5-0.3-0.7c-0.3-0.7-0.7-1.4-1-2.1c-0.1-0.2-0.2-0.5-0.4-0.7c-0.1-0.1-0.1-0.2-0.2-0.4
		C381.6,447.6,381.5,447.5,381.5,447.3L381.5,447.3L381.5,447.3z"/>
	<path class="st1" d="M350.1,399.1c0,0,0-0.1-0.1-0.1c-0.1-0.1-0.2-0.2-0.2-0.3c-0.4-0.5-0.8-0.9-1.1-1.3l-0.3-0.3
		c-0.5-0.6-1-1.1-1.5-1.7c-0.6-0.7-1.2-1.5-1.7-2.2c-0.3-0.4-0.6-0.8-1-1.2c-0.2-0.2-0.3-0.4-0.5-0.6c-0.3-0.4-0.6-0.8-0.9-1.2
		c-0.4-0.4-0.7-0.9-1.1-1.3l-0.3-0.4c-0.9-1.1-1.9-2.2-2.9-3.3c-0.9-0.8-1.7-1.6-2.8-2.5l0.1,0.1c-0.6-0.5-1.2-0.9-1.8-1.4
		c-0.7-0.4-1.3-0.8-1.8-1.1c-0.8-0.4-1.5-0.7-2.2-0.9c-0.3-0.1-0.6-0.2-1-0.2c-0.4-0.1-0.8-0.1-1.3-0.2c-0.8,0-1.5,0-2.3,0.1
		c-0.6,0.1-1.4,0.3-2.1,0.5l0,0c-0.4,0.1-0.7,0.3-1.1,0.4c-0.4,0.2-0.7,0.4-1,0.5c-0.5,0.3-1,0.8-1.5,1.2l-0.1,0.1
		c-0.3,0.2-0.5,0.5-0.8,0.7l-0.2,0.2c-0.2,0.2-0.4,0.4-0.6,0.6c-0.3,0.3-0.6,0.7-0.9,1.1c-0.2,0.2-0.3,0.4-0.5,0.6
		c-0.1,0.1-0.2,0.2-0.3,0.4c-0.1,0.1-0.2,0.2-0.3,0.3c-0.1,0.2-0.3,0.4-0.4,0.5l-0.1,0.2c-0.2,0.3-0.3,0.5-0.5,0.7l-0.1,0.1
		c-0.1,0.1-0.2,0.3-0.2,0.4c-0.2,0.2-0.4,0.4-0.4,0.6c0,0,0,0.1-0.1,0.1c0,0.2,0,0.3,0,0.5l0,0c0.1,0.2,0.2,0.2,0.4,0.3
		c0.5,0.2,1,0.5,1.5,0.7l0.7,0.3c1.2,0.6,2.6,1.2,4.2,1.9c0.8,0.3,1.4,0.6,1.9,0.8c0.7,0.2,1.4,0.5,2.2,0.8c1.1,0.4,2.2,0.7,3.2,1
		l0.8,0.3l2.2,0.7c0.2,0.1,0.4,0.1,0.6,0.2c0.5,0.1,0.9,0.3,1.4,0.4c1.5,0.4,2.9,0.9,4.3,1.3c0.3,0.1,0.6,0.2,1,0.3
		c1.1,0.3,2.2,0.7,3.3,1c0.8,0.2,1.6,0.4,2.2,0.6c0.3,0.1,0.7,0.2,1,0.2c0.3,0.1,0.7,0.2,1,0.2c0.7,0.2,1.4,0.3,2,0.4
		c0.4,0.1,0.8,0.2,1.3,0.1c0.4-0.1,0.8-0.4,0.8-0.8C350.2,399.4,350.2,399.3,350.1,399.1L350.1,399.1L350.1,399.1z"/>
	<path class="st0" d="M348,422.6c-0.4-0.7-0.8-1.3-1.1-2l-0.3-0.5c-1-1.8-2.2-3.4-3.6-5.2c-0.8-1.1-1.5-2-2.2-2.8
		c-0.6-0.8-1.3-1.6-1.9-2.4c-0.2-0.3-0.5-0.6-0.7-0.9c-0.4-0.5-0.8-1-1.2-1.4c-0.7-0.8-1.3-1.6-2-2.4l0,0c-0.3-0.4-0.6-0.7-0.9-1.1
		c-0.4-0.4-0.7-0.8-1.1-1.1c-0.7-0.7-1.5-1.2-2.3-1.8l-0.1-0.1c-0.2-0.1-0.4-0.1-0.6-0.1c-0.2,0.1-0.5,0.2-0.6,0.4
		c-0.1,0.2-0.1,0.4-0.1,0.6c0,0,0,0,0,0c-0.1,0.2-0.2,0.5-0.2,0.7l0,0.1c0,0.2,0,0.3,0.1,0.4c0,0,0,0.1,0.1,0.1
		c0.1,0.1,0.1,0.1,0.2,0.2l0.1,0.1l-0.1-0.1c0.1,0.2,0.3,0.3,0.4,0.5l0.2,0.3c0.1,0.1,0.1,0.1,0.2,0.2c0.3,0.3,0.5,0.7,0.7,1.1
		c0.1,0.2,0.2,0.4,0.3,0.6c0.6,1.3,1,2.8,1.4,4c0.2,0.7,0.4,1.5,0.6,2.1c0.1,0.2,0.1,0.5,0.2,0.7c0,0.2,0.1,0.3,0.1,0.5
		c0.1,0.4,0.2,0.8,0.2,1.1c0.1,0.3,0.1,0.7,0.2,1c0.1,0.6,0.2,1.2,0.3,1.9c0.1,1,0.3,2,0.4,3.2c0,0.3,0.1,0.7,0.1,1
		c0.1,0.7,0.2,1.5,0.2,2.2c0,0.5,0.1,1,0.1,1.4l0,0.2l0,0.2c0,0.4,0.1,0.8,0.1,1.3c0,0.8,0,1.5,0,2.3c0,1.4,0,2.8,0,4.1
		c0,0.7,0,1.4,0,2.2l0,0.9c0,0.9,0.1,1.9,0.1,3.1c0.1,1.7,0.2,4,0.5,6.3c0.1,1.1,0.3,2.2,0.6,3.5c0.2,1.2,0.5,2.2,0.7,3.1
		c0.5,1.9,1.1,3.8,2,6c0.4,1.1,0.9,2.2,1.4,3.2c0.4,0.9,0.9,1.7,1.3,2.5l0.2,0.3c0.5,1,1.1,1.9,1.6,2.8l0.2,0.3
		c0.5,0.8,1,1.6,1.5,2.4c0.6,0.9,1.2,1.8,1.9,2.8c0.5,0.7,1,1.4,1.5,2c0.2,0.2,0.3,0.4,0.5,0.7c0.8,1,1.5,1.9,2.1,2.6
		c0.6,0.8,1.3,1.6,2.1,2.4c0.7,0.8,1.4,1.6,2.1,2.3c0.2,0.2,0.3,0.3,0.5,0.5c0.6,0.6,1.1,1.3,1.7,1.8c0.2,0.2,0.3,0.3,0.5,0.5
		c0.1,0.1,0.1,0.1,0.2,0.2c0.1,0.1,0.2,0.2,0.4,0.3c0.2,0.2,0.5,0.2,0.7,0.3c0.4,0.1,0.9,0.1,1.2-0.1c0.3-0.2,0.5-0.5,0.7-1
		c0-0.1,0.1-0.3,0.1-0.5c0,0,0-0.1,0-0.1c0-0.1,0-0.3,0-0.4c0-1,0-2,0-3l0-0.1c0-0.7-0.1-1.4-0.1-2c0-0.4-0.1-0.8-0.1-1.1
		c-0.1-1.1-0.1-2.1-0.2-3.2c-0.2-1.8-0.4-3.6-0.6-5.3l-0.2-1.2l-0.1-0.6c-0.2-1.8-0.5-3.7-0.7-5.6c-0.2-1.2-0.3-2.5-0.5-3.8
		l-0.1-0.4l-0.1-0.4c0-0.1,0-0.1,0-0.2l0,0l0,0l0,0l0,0l0,0l0,0l0,0l0,0l0,0l0,0l0,0l0,0l0,0l0,0l0,0l0,0l0,0l0,0l0,0
		c-0.1-0.7-0.2-1.3-0.3-2c-0.1-0.4-0.1-0.8-0.2-1.2c-0.2-1.1-0.4-2.2-0.6-3.3c-0.1-0.3-0.1-0.7-0.2-1l-0.1-0.4l-0.1-0.4
		c-0.1-0.4-0.2-0.8-0.3-1.2c-0.2-1.1-0.5-2.2-0.8-3.3c-0.5-1.9-1.1-3.9-1.8-6.3c-0.3-0.9-0.6-1.9-0.9-3c-0.4-1.1-0.8-2.1-1.2-3.3
		c-0.4-1.1-0.9-2.1-1.3-3c-0.4-0.9-0.9-2-1.5-3.1c-0.5-1-1-1.9-1.5-2.9C348.1,422.8,348.1,422.7,348,422.6L348,422.6L348,422.6z
		 M338.3,411.8L338.3,411.8L338.3,411.8L338.3,411.8L338.3,411.8L338.3,411.8L338.3,411.8L338.3,411.8L338.3,411.8L338.3,411.8
		L338.3,411.8L338.3,411.8z"/>
	<path class="st2" d="M436.3,473.5c-0.4-0.7-0.9-1.4-1.4-2.1l-0.1-0.2c-0.6-0.9-1.2-1.7-1.8-2.4c-0.4-0.4-0.7-0.9-1.1-1.3
		c-0.3-0.3-0.6-0.7-0.9-1c-0.7-0.8-1.4-1.5-2.1-2.3c-0.6-0.7-1.3-1.3-2.1-2.1c-0.4-0.3-0.7-0.7-1.1-1c-0.3-0.3-0.7-0.6-1-1
		c-0.4-0.4-0.8-0.8-1.2-1.2l-1-0.9c-0.4-0.4-0.9-0.9-1.3-1.3c-1-1-2-2-3.1-2.9c-0.5-0.5-1.1-1-1.6-1.4c-0.2-0.2-0.4-0.4-0.6-0.5
		c-0.3-0.2-0.6-0.5-0.8-0.7c-0.5-0.4-1-0.9-1.5-1.3c-1.5-1.3-3.2-2.4-4.8-3.5l-0.1-0.1l-0.8-0.6l-1.7-1.2c-0.2-0.2-0.5-0.3-0.7-0.5
		c-0.5-0.4-1.1-0.8-1.7-1.1c-1.5-1-3.2-2-5-3c-0.8-0.4-1.6-0.8-2.5-1.2c-0.5-0.2-1-0.4-1.4-0.6c-0.4-0.2-0.8-0.3-1.2-0.5
		c-1.2-0.5-2.4-1-3.6-1.4l-0.7-0.3l0.1,0l-0.3-0.1l-0.5-0.2c-0.6-0.2-1.1-0.4-1.7-0.7l0,0c-0.5-0.2-0.9-0.3-1.4-0.5
		c-0.3-0.1-0.6-0.2-0.9-0.3c-0.5-0.2-1-0.4-1.4-0.5c-0.2-0.1-0.5-0.2-0.7-0.3l-0.2-0.1c-0.3-0.1-0.6-0.2-0.9-0.3
		c-0.1,0-0.2-0.1-0.3-0.1c-0.1,0-0.1,0-0.2-0.1c-0.1,0-0.1-0.1-0.1-0.1c-0.2-0.1-0.3-0.1-0.5-0.1c-0.3,0-0.5,0.1-0.7,0.3
		c-0.2,0.2-0.3,0.5-0.3,0.8c0,0.2,0.1,0.3,0.1,0.5c0.1,0.1,0.1,0.2,0.2,0.2c0.2,0.1,0.3,0.2,0.4,0.3c0.2,0.2,0.5,0.4,0.7,0.6
		l0.2,0.1c0.3,0.3,0.7,0.5,1,0.8c0.7,0.6,1.5,1.3,2.2,2c1.3,1.3,2.8,2.8,4.2,4.4c0.7,0.8,1.3,1.6,2,2.3c0.6,0.7,1.1,1.5,1.6,2.4
		l0.2,0.3c0.3,0.5,0.6,1.1,1,1.7c0.1,0.2,0.2,0.4,0.3,0.6c0.4,0.9,0.9,1.8,1.4,2.8c0.1,0.3,0.2,0.5,0.4,0.7c0.1,0.2,0.2,0.5,0.3,0.7
		c0.1,0.2,0.2,0.3,0.2,0.5c0.1,0.3,0.3,0.6,0.4,0.9c0.4,0.9,0.9,1.8,1.3,2.6c0.2,0.3,0.3,0.7,0.5,1c0.2,0.4,0.5,0.9,0.7,1.4
		c0,0.1,0.1,0.2,0.1,0.3c1,1.8,2.1,3.5,3.3,4.9c0.3,0.3,0.5,0.6,0.8,1l0.3,0.3l0,0c0.3,0.4,0.6,0.8,1,1.2c0.7,0.7,1.4,1.4,2.2,2.1
		c0.5,0.4,1,0.7,1.4,1c0.4,0.3,0.7,0.5,1.1,0.7l0.2,0.1c0.3,0.2,0.7,0.4,1,0.6l0.3,0.2c0.5,0.2,0.9,0.5,1.3,0.6c2.1,1,4,1.7,5.8,2.3
		l0.5,0.2c0.8,0.3,1.6,0.5,2.4,0.7c0.9,0.2,1.8,0.4,2.9,0.6c0.7,0.1,1.4,0.2,2,0.2c0.3,0,0.6,0.1,0.9,0.1c0.3,0,0.6,0.1,1,0.1
		c0.6,0.1,1.2,0.1,1.8,0.2c1.1,0.1,2.2,0.2,3.3,0.3c0.6,0,1,0,1.5,0c0.3,0,0.6-0.1,0.9-0.1c0.3,0,0.5-0.1,0.7-0.2
		c0.2-0.1,0.4-0.2,0.5-0.3c0.1-0.1,0.2-0.2,0.3-0.3l0.1,0c0.2-0.2,0.4-0.4,0.6-0.7c0.2-0.3,0.3-0.6,0.3-0.9c0-0.2,0-0.3,0-0.6
		c0-0.1,0-0.2,0-0.3c0,0,0-0.1,0-0.1c-0.1-0.3-0.2-0.7-0.3-1C436.5,473.8,436.4,473.7,436.3,473.5L436.3,473.5L436.3,473.5z"/>
	<path class="st2" d="M400.6,406.7c-0.1-0.1-0.1-0.2-0.3-0.4c-0.1-0.2-0.3-0.3-0.5-0.4l-0.1,0c-0.1-0.1-0.2-0.1-0.3-0.2l-0.3-0.2
		c-0.3-0.2-0.7-0.4-1-0.6c-1-0.6-1.9-1.2-2.7-1.8c-0.8-0.6-1.7-1.3-2.5-1.9c-0.5-0.3-0.9-0.6-1.4-0.9c-0.3-0.2-0.6-0.4-0.9-0.5
		c-0.1-0.1-0.2-0.1-0.4-0.2c-1.8-1-3.9-1.9-6.1-2.6c-0.9-0.3-1.9-0.6-2.9-0.9c-0.9-0.2-1.8-0.4-2.9-0.6c-0.5-0.1-1.1-0.2-1.7-0.2
		c-0.5,0-0.9-0.1-1.4-0.1l-0.2,0c-0.5,0-0.9,0-1.4,0c-0.4,0-0.9,0-1.4,0.1c-1.1,0.1-2.2,0.4-3.1,0.7c-0.5,0.2-1,0.3-1.5,0.5
		c-0.6,0.2-1.1,0.5-1.6,0.7c-0.9,0.4-1.9,0.9-2.8,1.4c-0.4,0.2-0.8,0.4-1.3,0.7c-0.4,0.3-0.9,0.6-1.3,0.9c-1.3,0.9-2.4,1.7-3.3,2.5
		c-0.6,0.5-1.3,1-1.9,1.6c-0.5,0.4-0.9,0.8-1.4,1.2c-0.1,0.1-0.2,0.1-0.2,0.2c-0.8,0.6-1.7,1.3-2.8,1.9c-0.2,0.1-0.4,0.2-0.6,0.4
		c-0.3,0.2-0.6,0.4-1,0.6c-0.5,0.3-0.9,0.5-1.3,0.7c-0.3,0.1-0.5,0.2-0.8,0.3l0.1,0c-0.4,0.2-0.8,0.4-1.2,0.6
		c-0.1,0-0.1,0.1-0.2,0.1c-0.1,0-0.1,0.1-0.2,0.1c-0.2,0.1-0.3,0.2-0.4,0.3c-0.1,0.1-0.2,0.2-0.3,0.3c0,0-0.1,0.1-0.1,0.1
		c-0.1,0.2-0.2,0.5-0.1,0.8c0,0.1,0,0.1,0.1,0.2c0,0.1,0.1,0.1,0.1,0.2l0,0c0.1,0.1,0.2,0.3,0.3,0.3l0.1,0c0.5,0.2,0.9,0.4,1.4,0.6
		c0.5,0.1,1,0.3,1.4,0.4l0.1,0c0.4,0.1,0.8,0.2,1.2,0.3c0.4,0.1,0.8,0.1,1.2,0.2c0.1,0,0.3,0,0.4,0.1c0.9,0.1,1.9,0.2,2.8,0.3l0.3,0
		c1.1,0.1,2.2,0.2,3.2,0.2l0.1,0c1,0.1,2.1,0.1,3.1,0.1l0.1,0c1.1,0,2.1-0.1,3.1-0.1c0.3,0,0.5,0,0.8-0.1c0.2,0,0.5,0,0.7-0.1
		c0.4,0,0.9-0.1,1.3-0.1l0.4,0c0.5,0,1-0.1,1.5-0.1c0.5,0,1-0.1,1.5-0.1c0.4,0,0.8-0.1,1.2-0.1c0.2,0,0.4,0,0.6-0.1l0.3,0
		c0.5-0.1,1.1-0.1,1.6-0.2c1.2-0.2,2.3-0.3,3.4-0.5l0,0c0.1,0,0.2,0,0.3,0l0,0l0.1,0l0,0l0.1,0l0.6-0.1c0.3-0.1,0.7-0.1,1-0.2l0,0
		l0,0l0,0l0.1,0l0.1,0l-0.2,0l0.5-0.1c0.9-0.1,1.7-0.3,2.6-0.4c0.9-0.2,1.8-0.3,2.7-0.5l0.4-0.1c1-0.2,1.9-0.4,2.9-0.6
		c1-0.2,2.1-0.4,3.2-0.6c0.9-0.2,1.9-0.4,2.9-0.6c0.4-0.1,0.8-0.2,1.2-0.4l0.2-0.1c0.4-0.1,0.9-0.3,1.3-0.5l0.1,0l0.3-0.1
		c0.3-0.1,0.6-0.3,1-0.4c0.5-0.2,1-0.4,1.4-0.8c0.2-0.2,0.3-0.5,0.3-0.8C400.8,407,400.7,406.8,400.6,406.7L400.6,406.7L400.6,406.7
		z"/>
	<path class="st2" d="M307,381.4c-0.2-0.4-0.6-0.6-1.1-0.6c-0.3,0-0.6,0.1-0.8,0.4c-0.2,0.2-0.3,0.5-0.3,0.8c0,0,0,0.1,0,0.1l0-0.1
		c0,0.2,0,0.4,0,0.7l0,0.2c0,0.1,0,0.2,0,0.3c0,0.1,0,0.2,0,0.2c0,0.1,0,0.2,0,0.4c0,0.1,0,0.2,0,0.2c0,0.6-0.1,1.2-0.1,1.7
		c0,0.3,0,0.6,0,0.9c0,0.4,0,0.8-0.1,1.2c0,0.5-0.1,1.1-0.1,1.7c0,1.1-0.1,2.1-0.1,3c0,0.4-0.1,0.8-0.1,1.2c0,0.2,0,0.5-0.1,0.7
		c0,0.6-0.1,1.2-0.1,1.8l0,0.4c0,0.4,0,0.9,0,1.4c0,0.6-0.1,1.3-0.1,1.8c-0.1,0.8-0.2,1.6-0.2,2.5c0,0.4-0.1,0.8-0.1,1.2
		c0,0.1,0,0.2,0,0.3l0-0.1l0,0.1l0,0.2l0,0l0,0l0,0.2l0,0.2c-0.1,1-0.2,1.9-0.3,2.9l0,0.2c0,0.2,0,0.5-0.1,0.7
		c-0.1,0.7-0.1,1.5-0.2,2.3c0,0.9,0,1.9,0,2.8c0,0.1,0,0.3,0,0.4c0,0.4,0,0.7,0,1.1c0,0.5,0.1,1,0.1,1.5c0.1,0.6,0.1,1.2,0.2,1.8
		c0.1,0.4,0.2,0.7,0.2,1.1l0.1,0.3c0.2,1,0.6,2,0.9,2.8c0.2,0.5,0.5,1.1,0.7,1.6l0.1,0.3c0.1,0.3,0.3,0.6,0.5,1l0,0
		c0.5,0.9,1,1.7,1.6,2.6c0.3,0.5,0.7,1,1,1.3c0.3,0.3,0.6,0.7,1,1.1c0.5,0.4,1,0.8,1.5,1.1c0.4,0.3,0.8,0.5,1.2,0.7l0.1,0l0.4,0.2
		c0.7,0.4,1.5,0.9,2.3,1.3c0.8,0.4,1.6,0.8,2.3,1.1l0.6,0.3c0.9,0.4,1.9,0.9,2.8,1.4c0.5,0.3,0.9,0.5,1.4,0.8
		c0.1,0.1,0.2,0.1,0.3,0.2c0.1,0.1,0.2,0.1,0.3,0.2c0.1,0,0.2,0.1,0.2,0.1l0.1,0c0.1,0,0.1,0.1,0.2,0.1c0.1,0.1,0.3,0.1,0.4,0.1
		c0.1,0,0.2,0,0.3,0c0.1,0,0.4-0.1,0.6-0.2c0,0,0,0,0,0c0.2-0.1,0.3-0.2,0.4-0.4c0.1-0.2,0.2-0.4,0.2-0.6l0-0.1c0-0.2,0-0.4,0-0.6
		c0-0.1,0-0.1,0-0.2c0-0.5-0.1-1-0.2-1.5c-0.1-0.5-0.2-1.1-0.3-1.7c0-0.2-0.1-0.4-0.1-0.7c-0.1-0.3-0.1-0.6-0.2-0.9
		c-0.4-1.8-0.8-3.7-1.5-6c-0.2-0.6-0.3-1.2-0.5-1.7c-0.1-0.4-0.3-0.9-0.4-1.3c-0.1-0.3-0.2-0.7-0.3-1c-0.2-0.6-0.4-1.3-0.6-1.9
		c-0.7-2.2-1.4-4.4-1.9-6.1c-0.2-0.6-0.4-1.2-0.5-1.7c-0.1-0.4-0.3-0.9-0.4-1.3c-0.1-0.4-0.3-0.8-0.4-1.2c-0.2-0.5-0.4-1.1-0.5-1.7
		c-0.1-0.4-0.2-0.7-0.3-1.1c-0.2-0.7-0.4-1.3-0.6-2c-0.2-0.7-0.5-1.5-0.7-2.2c-0.1-0.3-0.2-0.6-0.3-0.9l-0.1-0.4
		c-0.3-0.8-0.6-1.7-0.9-2.5c-0.1-0.3-0.2-0.7-0.4-1c-0.2-0.6-0.5-1.3-0.8-2l-0.2-0.4c-0.3-0.9-0.7-1.7-1.1-2.6c-0.5-1-0.9-2-1.4-2.8
		c-0.3-0.6-0.6-1.2-0.9-1.8c-0.2-0.3-0.3-0.7-0.5-1c-0.3-0.6-0.6-1.3-0.9-1.9c-0.1-0.3-0.3-0.6-0.4-0.9c-0.2-0.4-0.4-0.9-0.7-1.4
		c0-0.1,0-0.2,0-0.3C307.1,381.7,307,381.5,307,381.4L307,381.4L307,381.4z"/>
	<path class="st3" d="M383,433.4c-0.7-0.5-1.6-0.9-2.4-1.3c-0.8-0.4-1.6-0.8-2.3-1.2c-0.4-0.2-0.8-0.4-1.2-0.6
		c-0.1,0-0.1-0.1-0.2-0.1c-0.9-0.5-1.7-1-2.6-1.5c-0.8-0.6-1.7-1.1-2.6-1.7c-0.8-0.5-1.6-1-2.5-1.5c-0.9-0.5-1.7-0.9-2.6-1.4
		c-1-0.5-1.9-0.9-2.9-1.4c0,0,0,0,0,0c0,0,0,0,0,0c-0.1-0.1-0.3-0.2-0.4-0.2c0,0,0.1,0,0.1,0.1c-0.1,0-0.2-0.1-0.3-0.1c0,0,0,0,0,0
		c-0.2-0.1-0.3-0.2-0.5-0.2c0,0,0.1,0,0.1,0.1c-0.3-0.1-0.5-0.3-0.8-0.4c-0.8-0.4-1.6-0.9-2.3-1.3c-0.9-0.5-1.7-1-2.4-1.6
		c-0.4-0.3-0.8-0.6-1.2-0.9c-0.4-0.3-0.8-0.6-1.2-0.9c-0.8-0.6-1.6-1.2-2.4-1.8c-0.8-0.6-1.6-1.2-2.3-1.7c-0.7-0.5-1.4-1-2.1-1.6
		c-0.7-0.6-1.5-1.1-2.3-1.7c-0.7-0.5-1.5-1-2.3-1.4c-0.8-0.5-1.6-0.9-2.3-1.4c-0.8-0.5-1.7-1-2.5-1.4c-0.9-0.5-1.8-1-2.6-1.5
		c-0.4-0.2-0.7-0.4-1.1-0.7c-0.4-0.2-0.8-0.5-1.3-0.7c-0.8-0.4-1.5-0.9-2.3-1.4c-0.4-0.2-0.8-0.5-1.1-0.7c-0.2-0.1-0.4-0.3-0.6-0.4
		c-0.2-0.1-0.4-0.3-0.5-0.4c-0.8-0.6-1.5-1.3-2.3-1.9c-0.8-0.6-1.5-1.3-2.3-1.9c-0.8-0.7-1.5-1.3-2.3-2c-0.6-0.6-1.3-1.2-1.9-1.8
		c-0.6-0.5-1.2-1.1-1.8-1.6c-0.7-0.7-1.3-1.3-2-2c-0.3-0.3-0.7-0.7-1-1c-0.3-0.3-0.7-0.7-1-1c-0.7-0.8-1.5-1.5-2.3-2.2
		c-0.7-0.6-1.4-1.3-2.2-1.9c-0.4-0.3-0.8-0.6-1.1-0.9c-0.4-0.3-0.7-0.6-1.1-0.8c-0.8-0.5-1.5-1-2.3-1.5c-0.7-0.5-1.5-0.9-2.3-1.3
		c-0.4-0.2-0.8-0.4-1.2-0.6c-0.4-0.2-0.8-0.4-1.2-0.6c-0.6-0.3-1.3-0.7-1.9-1.1c-0.5-0.3-1.2-0.3-1.6,0.3c-0.4,0.5-0.2,1.3,0.3,1.6
		c0.7,0.5,1.5,0.9,2.3,1.3c0.8,0.4,1.6,0.8,2.3,1.3c0.8,0.5,1.6,0.9,2.3,1.4c0.4,0.2,0.8,0.5,1.2,0.8c0.4,0.3,0.8,0.5,1.2,0.8
		c0.4,0.3,0.8,0.6,1.3,1c0.4,0.4,0.9,0.7,1.3,1.1c0.8,0.7,1.7,1.4,2.5,2.2c0.3,0.3,0.6,0.5,0.8,0.8c0.3,0.3,0.6,0.6,0.9,0.9
		c0.6,0.7,1.3,1.3,2,2c0.3,0.3,0.6,0.6,1,0.9c0.4,0.4,0.8,0.7,1.2,1.1c0.7,0.6,1.4,1.2,2,1.8c0.4,0.4,0.7,0.7,1.1,1.1
		c0.4,0.3,0.8,0.7,1.2,1c0.7,0.6,1.5,1.3,2.2,1.9c0.4,0.3,0.8,0.6,1.1,0.9c0.4,0.3,0.8,0.6,1.2,1c0.7,0.6,1.5,1.2,2.2,1.7
		c0.4,0.3,0.7,0.5,1.1,0.7c0.4,0.2,0.8,0.5,1.2,0.7c0.4,0.2,0.7,0.5,1.1,0.7c0.4,0.2,0.8,0.5,1.3,0.7c0.4,0.2,0.7,0.4,1.1,0.7
		c0.4,0.2,0.9,0.5,1.3,0.7c0.9,0.5,1.7,1,2.6,1.5c1.6,0.9,3.1,1.9,4.7,2.8c0.8,0.5,1.6,1,2.3,1.5c0.4,0.3,0.8,0.6,1.2,0.9
		c0.3,0.3,0.7,0.5,1,0.8c0.7,0.5,1.5,1.1,2.2,1.6c0.8,0.6,1.6,1.2,2.4,1.8c0.4,0.3,0.8,0.6,1.2,0.9c0.4,0.3,0.8,0.6,1.2,0.9
		c0.4,0.3,0.8,0.6,1.2,0.9c0.4,0.3,0.8,0.6,1.2,0.9c0.8,0.6,1.7,1,2.6,1.5c0.9,0.5,1.9,1,2.9,1.5c-0.1,0-0.2-0.1-0.3-0.1
		c0.8,0.4,1.7,0.8,2.5,1.2c0.8,0.3,1.5,0.7,2.2,1.1c-0.1,0-0.2-0.1-0.2-0.1c0.2,0.1,0.4,0.2,0.6,0.3c0.4,0.2,0.7,0.4,1.1,0.6
		c0.9,0.5,1.7,1,2.5,1.5c0.9,0.5,1.7,1.1,2.6,1.6c0.9,0.6,1.8,1.1,2.8,1.5c0.8,0.4,1.7,0.8,2.5,1.2c0.8,0.4,1.6,0.8,2.4,1.2
		c0.2,0.1,0.4,0.2,0.6,0.4c0.4,0.3,0.9,0.2,1.2-0.2c0.2-0.3,0.2-0.6,0-0.9C383.2,433.6,383.1,433.5,383,433.4L383,433.4L383,433.4z
		 M377.2,430.4c0,0-0.1,0-0.1-0.1C377.2,430.4,377.2,430.4,377.2,430.4L377.2,430.4L377.2,430.4z M364,422.9
		C363.9,422.9,363.9,422.9,364,422.9C363.9,422.9,363.9,422.9,364,422.9L364,422.9L364,422.9z M362.6,422.2c0,0,0.1,0,0.1,0.1
		C362.7,422.2,362.6,422.2,362.6,422.2L362.6,422.2L362.6,422.2z M367.5,426.9c-0.1,0-0.1-0.1-0.2-0.1
		C367.4,426.9,367.5,426.9,367.5,426.9C367.5,426.9,367.5,426.9,367.5,426.9L367.5,426.9L367.5,426.9z"/>
	<path class="st3" d="M381.3,427.7c-0.1-0.1-0.1-0.2-0.3-0.3c-0.1-0.1-0.2-0.1-0.4-0.1c0,0,0,0,0,0c-0.5,0-1,0-1.4-0.1
		c-0.6,0-1.2,0-1.8-0.1c-0.6,0-1.1-0.1-1.7-0.1c-0.5,0-1-0.1-1.6-0.1c-0.5-0.1-0.9-0.2-1.4-0.3c-0.5-0.1-1-0.2-1.5-0.3
		c-0.4-0.1-0.8-0.2-1.1-0.3c-0.2-0.1-0.4-0.1-0.6-0.1c-0.2-0.1-0.4-0.1-0.6-0.2c-0.1,0-0.1,0-0.2,0c-0.4-0.1-0.8,0.1-1.1,0.4
		c-0.2,0.4-0.1,1.1,0.3,1.3c0.2,0.1,0.3,0.2,0.5,0.2c0.2,0.1,0.4,0.2,0.7,0.3c0.3,0.1,0.6,0.2,0.8,0.3c0,0-0.1,0-0.1,0
		c0.9,0.4,1.9,0.5,2.9,0.7c0.6,0.1,1.2,0.2,1.9,0.2c0.4,0,0.8,0,1.1,0c0.4,0,0.7,0,1.1,0c0.7,0,1.4-0.1,2.1-0.1c0.3,0,0.7,0,1-0.1
		c0.2,0,0.3,0,0.5,0c0.2,0,0.5,0,0.7-0.2C381.4,428.3,381.5,428,381.3,427.7C381.3,427.7,381.3,427.7,381.3,427.7L381.3,427.7
		L381.3,427.7z"/>
	<path class="st3" d="M383.3,434.1c-0.1-0.2-0.2-0.3-0.4-0.4c-0.2-0.1-0.4-0.1-0.6-0.2c-0.1,0-0.2-0.1-0.4-0.1
		c-0.4-0.2-0.9-0.4-1.3-0.6c-0.3-0.2-0.6-0.3-0.9-0.5c-0.3-0.1-0.6-0.3-0.8-0.4c-1-0.6-1.9-1.3-2.8-2c-0.3-0.2-0.6-0.4-0.9-0.6
		c-0.3-0.2-0.5-0.3-0.8-0.5c-0.3-0.2-0.7-0.4-1-0.6c-0.3-0.2-0.6-0.4-0.9-0.6c-0.3-0.2-0.7-0.4-1-0.6c-0.3-0.2-0.7-0.3-1-0.5
		c-0.3-0.1-0.6-0.3-0.9-0.4c-0.3-0.2-0.6-0.3-0.9-0.4c-0.1,0-0.2,0-0.4,0c-0.2-0.1-0.4-0.2-0.6-0.4c-0.7-0.5-1.4-0.9-2.2-1.3
		c-0.4-0.2-0.7-0.4-1.1-0.6c-0.3-0.2-0.6-0.4-0.9-0.5c-0.1-0.1-0.3-0.2-0.4-0.2c-0.2-0.1-0.3-0.2-0.5-0.2c-0.1-0.1-0.2-0.2-0.3-0.2
		c-0.7-0.6-1.4-1.1-2.1-1.6c-0.4-0.3-0.8-0.6-1.2-0.9c-0.3-0.2-0.7-0.5-1-0.7c-0.7-0.5-1.4-0.9-2.1-1.4c-0.5-0.3-1-0.7-1.5-1.1
		c-0.5-0.4-1.1-0.9-1.7-1.3c-0.4-0.3-0.8-0.7-1.2-1c-0.4-0.3-0.8-0.6-1.2-0.9c-0.2-0.2-0.5-0.4-0.7-0.6c0.9-0.1,1.7-0.3,2.6-0.5
		c0.9-0.2,1.9-0.4,2.8-0.7c0.5-0.2,0.9-0.3,1.4-0.6c0.2-0.1,0.4-0.3,0.6-0.4c0.2-0.1,0.4-0.4,0.4-0.6c0-0.2,0.1-0.4,0-0.5
		c0-0.1-0.1-0.2-0.1-0.3c-0.1-0.2-0.2-0.3-0.4-0.4c-0.4-0.3-0.8-0.3-1.2-0.3c-0.2,0-0.4,0-0.6,0c-0.4,0-0.8,0-1.1,0.1
		c-0.4,0-0.8,0.1-1.1,0.1c-0.5,0-0.9,0.1-1.4,0.1c-0.7,0.1-1.4,0.2-2.1,0.3c-0.7,0.1-1.3,0.2-2,0.3c-0.2,0-0.4,0-0.6,0
		c-0.3,0-0.6,0-0.9,0c-0.3,0-0.6,0-1-0.1c-0.1,0-0.2,0-0.2,0c-0.3,0-0.5-0.1-0.8-0.2c-0.3-0.1-0.6-0.2-0.9-0.3
		c-0.1,0-0.2-0.1-0.3-0.1c-0.2-0.1-0.5-0.2-0.7-0.4c-0.3-0.2-0.7-0.4-1-0.5c-0.8-0.4-1.6-0.8-2.4-1.2c-0.4-0.2-0.7-0.4-1.1-0.6
		c-0.4-0.2-0.7-0.4-1.1-0.6c-0.7-0.3-1.4-0.6-2.1-1c-0.2-0.1-0.4-0.2-0.6-0.3c-0.2-0.1-0.4-0.3-0.6-0.4c-0.2-0.1-0.3-0.2-0.5-0.3
		c0,0-0.1-0.1-0.1-0.1c-0.2-0.1-0.3-0.2-0.5-0.2c0,0,0,0,0,0c-0.1-0.2-0.3-0.5-0.5-0.7c-0.2-0.2-0.4-0.5-0.7-0.6
		c-0.2-0.1-0.4-0.2-0.6-0.2c-0.3,0-0.6,0.1-0.8,0.3c-0.2,0.2-0.3,0.5-0.3,0.8c0,0.1,0,0.2,0,0.3c0,0.2,0.1,0.3,0.3,0.5
		c0.1,0.2,0.3,0.3,0.4,0.5c0.3,0.5,0.6,1,0.9,1.5c0.1,0.3,0.3,0.6,0.4,0.8c0.2,0.4,0.4,0.8,0.6,1.2c0.2,0.4,0.4,0.8,0.7,1.2
		c0.2,0.3,0.4,0.7,0.6,1c0.3,0.4,0.6,0.8,0.9,1.2c0.3,0.3,0.6,0.6,0.9,0.9c0.2,0.2,0.4,0.4,0.7,0.5c0.2,0.1,0.4,0.2,0.6,0.3
		c0.2,0.1,0.4,0,0.6,0c0.2-0.1,0.3-0.1,0.5-0.3c0.3-0.2,0.4-0.6,0.3-0.9c0-0.2,0-0.4-0.1-0.6c-0.1-0.5-0.4-1-0.6-1.5
		c-0.2-0.4-0.4-0.8-0.6-1.2c-0.1-0.3-0.3-0.5-0.4-0.8c0.3,0.1,0.6,0.3,0.9,0.4c0.8,0.4,1.6,0.9,2.4,1.3c0.6,0.3,1.2,0.6,1.7,0.9
		c0.2,0.1,0.5,0.3,0.7,0.4c0.2,0.1,0.4,0.2,0.6,0.3c0.4,0.2,0.9,0.4,1.3,0.5c0.2,0.1,0.3,0.1,0.5,0.2c0.2,0,0.4,0.1,0.6,0.1
		c0.4,0.1,0.7,0.1,1.1,0.1c-0.1,0.3,0,0.5,0.1,0.8c0.2,0.3,0.5,0.5,0.8,0.7c0.2,0.2,0.5,0.3,0.7,0.5c0.5,0.3,0.9,0.7,1.4,1
		c0.4,0.3,0.8,0.7,1.2,1c0.4,0.3,0.7,0.5,1.1,0.8c0.3,0.2,0.6,0.5,0.9,0.7c0.3,0.2,0.6,0.4,0.8,0.6c0.3,0.3,0.6,0.5,1,0.8
		c0.3,0.3,0.7,0.5,1,0.7c0.6,0.5,1.3,0.9,2,1.3c0.7,0.4,1.3,0.9,1.9,1.4c0.7,0.5,1.3,1,2,1.5c0.3,0.2,0.5,0.4,0.7,0.7
		c0.2,0.2,0.4,0.5,0.6,0.8c0,0,0.1,0.1,0.1,0.1c0,0,0-0.1-0.1-0.1c0,0,0,0,0,0c0.1,0.1,0.1,0.2,0.2,0.3c0.5,0.7,1,1.3,1.4,2
		c0.2,0.4,0.5,0.8,0.7,1.2c0.2,0.4,0.5,0.7,0.7,1.1c0.5,0.8,1,1.6,1.5,2.3c0.2,0.3,0.5,0.6,0.8,0.9c0.4,0.4,1,1,1.6,0.8
		c0.4-0.1,0.8-0.5,0.8-1c0-0.1,0-0.3-0.1-0.4c0-0.1-0.1-0.2-0.1-0.4c-0.2-0.5-0.4-0.9-0.6-1.3c-0.5-0.8-1-1.5-1.5-2.3
		c-0.3-0.4-0.6-0.9-0.9-1.3c0.4,0.3,0.8,0.5,1.2,0.8c0.7,0.5,1.5,0.9,2.2,1.3c0.8,0.5,1.5,0.9,2.3,1.4c0.7,0.5,1.4,0.9,2.2,1.4
		c0.8,0.5,1.5,1,2.3,1.5c0.8,0.5,1.6,1,2.4,1.4c0.6,0.3,1.3,0.6,2,0.9c0.3,0.1,0.6,0.2,0.9,0.2c0.2,0,0.5,0,0.7,0c0.1,0,0.1,0,0.2,0
		c0.4-0.1,0.6-0.4,0.8-0.7C383.4,434.6,383.4,434.3,383.3,434.1C383.3,434.1,383.3,434.1,383.3,434.1L383.3,434.1L383.3,434.1z
		 M356,410.4C356,410.3,356,410.3,356,410.4C356,410.3,356,410.3,356,410.4L356,410.4L356,410.4z M362.2,425.2c0,0-0.1-0.1-0.1-0.1
		C362.1,425.2,362.1,425.2,362.2,425.2L362.2,425.2L362.2,425.2z M345,409.3C345,409.3,345,409.3,345,409.3
		C345,409.3,345,409.3,345,409.3C345,409.3,345,409.3,345,409.3L345,409.3L345,409.3z M343.2,408.8c0,0-0.1,0-0.1,0
		C343.1,408.8,343.2,408.8,343.2,408.8L343.2,408.8L343.2,408.8z"/>
	<path class="st3" d="M325.2,389.4c-0.2-0.3-0.6-0.6-0.9-0.7c-0.5-0.2-1-0.3-1.5-0.4c-0.4-0.1-0.9-0.2-1.3-0.3
		c-0.4-0.1-0.9-0.1-1.3-0.2c-0.5-0.1-1.1-0.2-1.6-0.3c-0.5-0.1-1-0.2-1.6-0.3c-0.5-0.1-0.9-0.2-1.4-0.3c-0.4-0.1-0.8-0.2-1.2-0.3
		c-0.2-0.1-0.5-0.2-0.7-0.3c-0.3-0.2-0.6-0.5-0.9-0.7c-0.1,0-0.2-0.1-0.3-0.1c-0.1-0.1-0.2-0.2-0.3-0.3c-0.3-0.3-0.8-0.3-1.1,0
		c-0.3,0.3-0.3,0.8,0,1.1c0.1,0.1,0.1,0.1,0.2,0.2c0,0.2,0.1,0.4,0.3,0.6c0.2,0.2,0.4,0.4,0.6,0.6c0.2,0.2,0.4,0.3,0.7,0.4
		c0.3,0.2,0.7,0.3,1,0.4c0.3,0.1,0.5,0.2,0.8,0.2c0.1,0,0.1,0.1,0.2,0.1c0.7,0.4,1.5,0.8,2.2,1.2c0.5,0.2,0.9,0.4,1.4,0.6
		c0.4,0.1,0.8,0.3,1.2,0.4c0.4,0.1,0.8,0.2,1.2,0.3c0.5,0.1,1,0.1,1.5,0.2c0.4,0,0.9,0,1.3-0.1c0.2-0.1,0.4-0.2,0.6-0.2
		c0.1,0,0.2-0.1,0.2-0.1c0.2-0.2,0.3-0.2,0.4-0.4C325.4,390.2,325.4,389.7,325.2,389.4C325.2,389.5,325.2,389.4,325.2,389.4
		L325.2,389.4L325.2,389.4z"/>
	<path class="st3" d="M306.1,382c-0.2-0.4-0.6-0.8-0.9-1.2c-0.3-0.3-0.6-0.6-0.9-0.9c-0.4-0.3-0.8-0.7-1.3-1
		c-0.6-0.4-1.2-0.8-1.9-1.2c-0.3-0.2-0.6-0.4-0.9-0.5c-0.4-0.2-0.8-0.4-1.2-0.5c-0.2-0.1-0.4,0-0.6,0.1c-0.2,0.1-0.3,0.3-0.4,0.5
		c0,0.2,0,0.4,0.1,0.6c0.1,0.2,0.3,0.3,0.5,0.4c0,0,0.1,0,0.1,0c0.6,0.2,1.1,0.6,1.6,0.9c0.6,0.3,1.1,0.7,1.6,1.1
		c0.3,0.2,0.6,0.5,0.9,0.8c0,0.2,0.1,0.4,0.2,0.5c0,0.1,0.1,0.1,0.1,0.2c0.1,0.2,0.1,0.3,0.2,0.5c0.1,0.3,0.3,0.6,0.4,1
		c0.2,0.4,0.3,0.7,0.4,1.1c0.1,0.3,0.2,0.7,0.2,1.1c0.1,0.4,0.1,0.8,0.1,1.2c0.1,0.6,0.1,1.1,0.2,1.7c0.2,1,0.6,1.9,1,2.8
		c0.2,0.5,0.6,0.9,0.9,1.3c0.2,0.2,0.5,0.4,0.8,0.5c0.2,0,0.4,0,0.6,0c0.1,0,0.2-0.1,0.3-0.1c0.2-0.1,0.4-0.3,0.4-0.5
		c0.1-0.1,0.1-0.3,0.2-0.5c0.1-0.4,0.1-0.9,0-1.3c0-0.6-0.1-1.1-0.2-1.7c-0.2-1-0.5-1.9-0.9-2.8c-0.2-0.5-0.4-1-0.6-1.5
		c-0.2-0.4-0.4-0.9-0.6-1.3c-0.2-0.3-0.3-0.6-0.5-0.9C306.2,382.1,306.2,382,306.1,382L306.1,382L306.1,382z"/>
</g>
<g>
	<path class="st4" d="M288.5,467.2c-0.2,0-0.3,0-0.4,0l-0.2,0c-0.8-0.1-1.6-0.4-2.5-0.9c-0.6-0.3-1.3-0.8-1.9-1.3
		c-0.2-0.2-0.5-0.4-0.7-0.6c-0.4-0.4-0.8-0.8-1.2-1.3c-0.4-0.5-0.7-1.1-1-1.6c-0.7-1.3-1.2-2.7-1.6-4c-0.1-0.3-0.2-0.5-0.3-0.8
		l0-0.1l0,0c-0.1-0.3-0.2-0.6-0.3-1l-0.1-0.3l-0.1-0.3l-0.1-0.3l0-0.1c-0.1-0.4-0.3-0.7-0.4-1.1c-0.3-0.9-0.6-1.9-0.8-2.6l0,0
		l-0.1-0.2c-0.1-0.3-0.2-0.7-0.3-1c-0.4-1.4-0.9-2.7-1.3-4.1c-0.2-0.6-0.4-1.3-0.7-1.9c-0.1-0.2-0.2-0.5-0.2-0.7l0-0.1l0,0l0-0.1
		c-0.1-0.3-0.2-0.6-0.3-0.9c-0.5-1.4-1-2.6-1.5-3.9c-0.3-0.7-0.5-1.3-0.8-1.9c-0.1-0.2-0.1-0.3-0.2-0.5l0-0.1
		c-0.2-0.4-0.3-0.7-0.5-1.1c-0.2-0.4-0.4-0.8-0.5-1.1l-0.1-0.1l0,0l0,0l-0.1-0.1c-0.3-0.7-0.6-1.3-1-2c-0.7-1.3-1.2-2.3-1.7-3.3
		c-0.3-0.6-0.6-1.1-0.9-1.6l0,0l0-0.1l0-0.1l-0.1-0.1l-0.1-0.1c-0.3-0.4-0.5-0.9-0.7-1.3c-0.1-0.2-0.3-0.5-0.4-0.7l0.1,0.3
		c0.2,0.4,0.3,0.9,0.5,1.4c0.8,2.5,1.4,5.1,2,7.7l0,0l0,0.1l0,0.1l0,0.1c0.7,3.1,1.2,5.7,1.4,8.2c0.3,3.1,0.3,5.7,0.1,8.1
		c-0.1,1.3-0.2,2.6-0.5,3.9c-0.2,0.7-0.4,1.3-0.7,2.1c-0.2,0.4-0.5,1.1-0.9,1.8c-0.2,0.4-0.4,0.7-0.6,1c-0.1,0.1-0.2,0.3-0.3,0.4
		c-0.2,0.3-0.5,0.5-0.8,0.7l-0.1,0c-0.2,0.1-0.4,0.2-0.5,0.3c-0.2,0.1-0.4,0.2-0.7,0.3c-0.1,0.1-0.3,0.1-0.4,0.1
		c-0.5,0.2-1.1,0.3-1.7,0.4c-0.1,0-0.1,0-0.2,0c-0.7,0-1.4-0.2-2-0.5c-0.4-0.2-0.8-0.5-1.1-0.8c-0.1-0.1-0.3-0.2-0.4-0.4
		c-0.3-0.3-0.7-0.7-0.9-1.1c-0.2-0.3-0.4-0.7-0.6-1.1c-0.4-1-0.7-2.1-0.7-3.2c0-0.4,0-0.8,0-1.1l0-0.3l0-0.2l0-0.1
		c0-0.2,0-0.5,0-0.7c0-0.9,0.1-1.7,0.1-2.4c0.1-0.7,0.2-1.4,0.3-2.1c0.1-0.4,0.2-0.9,0.2-1.3l0-0.1c0.1-0.8,0.3-1.7,0.5-2.5
		c0.1-0.3,0.1-0.6,0.2-0.9l0-0.1l0-0.1l0-0.1l0.1-0.5c0.1-0.5,0.2-1,0.3-1.5l0-0.1l0.1-0.4c0.2-1,0.4-2,0.6-2.9
		c0.1-0.5,0.2-1,0.2-1.5l0-0.2c0.1-0.4,0.1-0.8,0.1-1.2c0.1-0.9,0.1-1.7,0.2-2.6l0-0.1l0-0.2l0-0.2c0.1-1.3,0.2-2,0.2-2.7
		c0.1-1.1,0.1-2.4,0-3.7c-0.1-1.2-0.3-2.4-0.5-3.5l0-0.1l-0.1-0.4c-0.1-0.5-0.2-0.9-0.4-1.5l0-0.1l0-0.1l0-0.1l0-0.1
		c-0.1-0.4-0.2-0.8-0.3-1.2c-0.1-0.3-0.1-0.6-0.2-0.8c-0.1-0.2-0.1-0.5-0.2-0.7c-0.1-0.5-0.2-1-0.3-1.5l0,0l0-0.1l0-0.1
		c0-0.1,0-0.1,0-0.2l0,0l-0.2-0.3l-0.1-0.1l0,0l-0.1-0.1c-0.3-0.5-0.6-1-1-1.5c-0.2-0.2-0.3-0.5-0.5-0.7l-0.1-0.1l-0.1-0.1l-0.1-0.1
		l-0.1-0.1c-0.1-0.2-0.3-0.4-0.4-0.6c-0.7-1-1.4-2-2.3-3.3c-0.2-0.2-0.5-0.5-0.8-0.8l0,0c0.2,0.8,0.3,1.4,0.4,2
		c0.1,0.5,0.2,1,0.2,1.4l0.1,0.4c0.2,1.5,0.4,2.9,0.6,4.2c0.1,1.2,0.3,2.5,0.4,4c0.1,1.3,0.1,2.7,0,4c0,1.4-0.2,2.8-0.3,4.1
		c-0.1,0.9-0.3,1.8-0.5,2.7l0,0l0,0l0,0.1l0,0l0,0c-0.1,0.4-0.1,0.7-0.2,1.1c-0.1,0.6-0.2,1.2-0.4,1.9l-0.1,0.3
		c-0.1,0.6-0.2,1.1-0.4,1.6c-0.4,1.5-0.8,2.8-1.3,4l-0.1,0.2c-0.2,0.4-0.4,1-0.7,1.5c-0.3,0.6-0.7,1.1-1.2,1.8
		c-0.3,0.5-0.7,1-1.2,1.6c-0.4,0.4-0.8,0.9-1.2,1.4c-0.3,0.3-0.6,0.5-0.9,0.8c-0.4,0.3-0.9,0.6-1.4,0.8c-0.6,0.3-1.4,0.4-1.8,0.6
		c-0.5,0.1-1,0.2-1.5,0.2h0c-0.5,0-0.9,0-1.3-0.1c-0.2,0-0.5-0.1-0.8-0.2c-0.3-0.1-0.7-0.2-1.1-0.5c-0.3-0.2-0.6-0.4-0.9-0.8
		c-0.2-0.3-0.4-0.7-0.5-1c-0.1-0.2-0.2-0.5-0.3-0.9c-0.2-0.8-0.2-1.5-0.3-2.1c0-0.6,0-1.2,0-1.9c0-0.8,0.2-1.6,0.3-2.2
		c0.3-1.5,0.5-2.8,0.9-3.9c0.4-1.2,0.8-2.5,1.4-4.1c0.5-1.2,1-2.4,1.5-3.6c0.2-0.4,0.4-0.7,0.5-1l0-0.1l0-0.1l0.1-0.1l0.1-0.1
		c0.1-0.1,0.1-0.2,0.2-0.3c0.3-0.6,0.6-1.2,0.9-1.9l0.2-0.3l0.1-0.1l0-0.1l0-0.1l0,0l0,0l0,0c0.2-0.4,0.3-0.7,0.5-1
		c0.1-0.3,0.3-0.5,0.4-0.8l0.1-0.1l0.1-0.1l0.1-0.1l0.1-0.2l0.2-0.4c0.5-1,1.1-2,1.4-2.7l0.3-0.7c0.1-0.2,0.2-0.4,0.3-0.5l0,0
		l0.1-0.1l0-0.1l0,0l0-0.1c0-0.1,0.1-0.1,0.1-0.2c0.2-0.3,0.3-0.6,0.5-0.9c0.3-0.5,0.6-1.3,1-2.1c0.2-0.5,0.4-0.9,0.6-1.4l0-0.1
		c0.1-0.2,0.2-0.4,0.3-0.7l0.1-0.3c0.2-0.5,0.4-1,0.6-1.6c0.2-0.6,0.3-1.2,0.4-1.7l0-0.1c0-0.2,0.1-0.4,0.1-0.7c0-0.1,0-0.1,0-0.2
		l0-0.1c0-0.1,0-0.1-0.1-0.2c-0.2-0.4-0.5-0.8-0.7-1.1l0,0l0,0l0-0.1c-0.3-0.5-0.7-1-1-1.5c-0.5-0.8-1.1-1.8-1.6-2.9l-0.1-0.1l0-0.1
		l0.1,0l0,0l-0.1-0.1l0-0.1c-0.3-0.5-0.5-1-0.8-1.5l-0.2-0.3l-0.2-0.3l0-0.1c-0.1-0.3-0.3-0.6-0.3-0.9c0-0.3,0-0.5,0.1-0.8
		c0.2-0.3,0.5-0.6,0.8-0.7c0.2-0.1,0.3-0.1,0.5-0.1c0.9,0,1.5,0.8,2,1.5l0.1,0.1c0.3,0.4,0.5,0.7,0.8,1.1c0.1,0.2,0.2,0.3,0.4,0.5
		c0.4,0.6,0.8,1.1,1.2,1.6c0.2,0.2,0.3,0.4,0.5,0.6c0.2,0,0.5,0,0.7,0.1l0.4,0c0.5,0,0.9,0.1,1.4,0.1c0.8,0,1.7,0.1,2.8,0.1
		c1.6,0,3.2-0.1,5.1-0.2c1.4-0.1,2.8-0.2,4.2-0.4c1.2-0.1,2.6-0.3,4-0.5l0.8-0.1l0.8-0.1c0.9-0.1,1.7-0.2,2.6-0.4
		c1.4-0.2,2.9-0.5,3.6-0.6l0.1,0l0.1,0l0.1,0c0.3,0,0.6-0.1,0.9-0.2l0.1,0l0.1,0l0.1,0l0.1,0l0,0l0.1,0l0,0c0.8-0.1,1.8-0.3,2.7-0.5
		c0.7-0.1,1.4-0.2,2.1-0.3l0,0l0,0l0,0c0.7-0.1,1.3-0.2,2-0.3c1.1-0.1,2.2-0.3,3.5-0.4l0.8-0.1c1.4-0.1,2.7-0.3,4-0.4
		c1.5-0.1,2.7-0.1,3.8-0.1c0.2,0,0.3,0,0.5,0c1.4,0,2.8,0.1,4.3,0.3c0.6,0.1,1.2,0.2,1.7,0.3l0.1,0l0,0l0.2,0c0.6,0.1,1.3,0.3,2,0.4
		c0.7,0.1,1.3,0.3,2,0.6c0.2,0.1,0.6,0.2,0.9,0.4c0.4,0.3,0.7,0.5,0.9,0.8c0.1,0.2,0.2,0.4,0.3,0.5c0.1,0.4,0.1,0.7,0.1,1.1l0,0.1
		l0,0.1c0,0.2-0.1,0.3-0.2,0.5c-0.1,0.1-0.1,0.2-0.2,0.3l0,0c-0.2,0.3-0.4,0.6-0.6,0.8c-0.3,0.3-0.6,0.6-1.1,0.9
		c-0.3,0.2-0.7,0.4-0.9,0.5c-0.2,0.1-0.3,0.1-0.4,0.2c-0.4,0.2-0.7,0.3-1.1,0.5c-1.1,0.5-2.3,0.9-3.8,1.3c-1.4,0.4-2.9,0.7-4.2,1
		l-0.6,0.1l-0.1,0l-0.1,0l-0.1,0l-0.1,0l-0.1,0c-1,0.2-2,0.4-3.1,0.5l-1,0.2l-0.2,0l-0.1,0l-0.1,0c-1,0.1-1.9,0.3-2.9,0.4l-0.1,0
		l0,0l-0.1,0l-0.1,0c-1.1,0.1-2.4,0.3-3.6,0.4c-1,0.1-2.1,0.1-3,0.2l0,0c-0.4,0-0.8,0-1.1,0c-1,0-2,0.1-2.8,0.1l-0.2,0l-0.2,0
		l-0.9,0c-0.4,0-0.7,0-1.1,0c-2.2,0-4.6-0.1-7.4-0.4c-0.2,0-0.4,0-0.6-0.1l-0.2,0l-0.3,0l-0.1,0c-0.8-0.1-1.7-0.1-2.6-0.3
		c-0.2,0-0.4-0.1-0.7-0.1l0,0l0,0c-0.4,0-0.8-0.1-1.2-0.1c-0.7-0.1-1.4-0.2-2.1-0.4l-0.6-0.1l0,0c-1-0.2-2-0.3-2.9-0.6
		c-1-0.2-1.9-0.6-2.7-0.9l0,0l-0.2-0.1c0.9,0.9,1.8,1.7,2.8,2.6c0.8,0.7,1.8,1.4,2.9,2.2c0.4,0.3,0.9,0.5,1.2,0.8l0.2,0.1l0.1,0
		l0.1,0l0.1,0.1c0.2,0.1,0.3,0.2,0.5,0.3l0.1,0l0,0c0.6,0.2,1.1,0.3,1.7,0.4l0.1,0l0.1,0l0.1,0c0.5,0.1,1.1,0.2,1.6,0.3
		c0.6,0.1,1.2,0.2,1.9,0.3c0.4,0,0.8,0,1.3,0c0.2,0,0.3,0,0.5,0c0.5,0,0.9,0,1.4-0.1l0.1,0l0.5,0l0.4,0l0.1,0l0.1,0l0,0l0.1,0l0,0
		c0.5,0,0.9,0,1.3,0h0.1c0.8,0,1.5,0,2.2-0.1c1.6-0.1,2.9-0.2,4.1-0.3c1.4-0.1,2.8-0.2,4.3-0.3c0.5,0,1,0,1.5-0.1l0.1,0l0.2,0l0.1,0
		c0.9,0,1.5-0.1,2.1-0.1c1.2-0.1,2.6-0.2,4.3-0.3l0.7-0.1l0.1,0l0.2,0l0,0l0.1,0c0.9-0.1,2-0.1,3-0.2c0.9,0,1.9-0.1,2.8-0.1l0,0l0,0
		l0,0l0,0l0,0l0,0l0,0l0,0l0.8,0c1.5,0,3,0,4.3,0c0.7,0,1.5,0,2.2,0l0.1,0h0h0h0h0h0l0,0c0.5,0,1,0,1.5,0c0.6,0,1.2,0,1.8,0
		c2,0,4.4,0,6.9,0.4c1.6,0.2,2.9,0.6,4,1.1c0.4,0.2,0.8,0.5,1.2,0.8c0.7,0.7,1.1,1.7,1.1,2.8c0,0.1,0,0.3,0,0.4l0,0.2
		c0,0.3,0,0.5-0.1,0.8c-0.1,0.4-0.2,0.8-0.5,1.3c-0.4,0.7-1,1.4-1.8,2c-0.8,0.6-1.4,1-2.1,1.3c-0.6,0.3-1.2,0.6-1.8,0.7
		c-0.7,0.2-1.4,0.4-1.9,0.5c-0.7,0.2-1.4,0.3-2.5,0.5c-1.4,0.3-2.7,0.5-4,0.5c-1.1,0.1-2.4,0.1-3.6,0.1c-0.2,0-0.4,0-0.6,0
		c-1.5,0-3-0.1-4.5-0.2c-1.2-0.1-2.5-0.2-4-0.4c-1.3-0.2-2.6-0.3-4.1-0.6c-1.4-0.2-2.7-0.5-4.1-0.8c-0.7-0.1-1.4-0.3-2.2-0.4
		c-0.8-0.1-1.5-0.3-2.1-0.4c-1.4-0.3-2.8-0.7-4-1l-0.6-0.2l-0.3-0.1l-0.3-0.1l0,0l-0.2-0.1c-0.9-0.2-1.7-0.5-2.5-0.7
		c-1.2-0.3-2.6-0.7-4-1.2l-1.2-0.4l-0.5-0.1c-0.7-0.2-1.4-0.4-2.1-0.7c-0.6-0.2-1.3-0.3-1.7-0.4l0,0l-0.2,0
		c-0.7-0.2-1.5-0.4-2.2-0.7c-0.2-0.1-0.3-0.1-0.5-0.2c0.9,0.6,1.5,1.1,2.3,1.6c0.6,0.4,1.1,0.7,1.7,1.1l0.1,0.1l0.2,0.1
		c0.4,0.2,0.8,0.5,1.1,0.7c0.9,0.6,1.9,1.1,3.2,1.8c1,0.5,2,0.9,2.9,1.3l0.1,0l0.5,0.2c1.1,0.5,2.2,0.9,3.1,1.2l0,0l0,0l0.1,0l0.1,0
		l0,0l0,0l0.1,0c0.5,0.2,1,0.3,1.6,0.5c0.7,0.2,1.4,0.3,2,0.5c0.7,0.1,1.4,0.3,2.1,0.4l0.2,0l0.1,0l0.2,0l0.1,0l0.2,0
		c0.4,0.1,0.8,0.2,1.3,0.3l0.6,0.1c1.3,0.3,2.4,0.5,3.5,0.7c1.3,0.3,2.6,0.5,3.9,0.7c2.5,0.4,5.2,0.7,8.5,1.1
		c1.3,0.2,2.6,0.3,4.2,0.4l0.4,0l0,0l0,0l0,0l0,0l0,0l0,0l0,0c1.1,0.1,2.2,0.2,3.3,0.4c2.9,0.4,5.8,1,8.3,1.5c1.3,0.3,2.7,0.6,4.1,1
		c0.7,0.2,1.4,0.4,2.1,0.7c0.7,0.3,1.3,0.5,1.8,0.7c0.7,0.3,1.3,0.7,1.9,1.1c0.1,0.1,0.2,0.2,0.3,0.2c0.3,0.2,0.5,0.5,0.7,0.7
		c0.2,0.2,0.3,0.5,0.5,0.8l0,0.1c0.1,0.2,0.1,0.4,0.1,0.5l0,0.2c0.1,0.3,0.1,0.6,0,0.9c0,0.4-0.2,0.9-0.4,1.3
		c-0.1,0.2-0.2,0.4-0.3,0.5l-0.1,0.2c-0.1,0.2-0.3,0.3-0.4,0.4c-0.6,0.6-1.5,1-2.2,1.3c-0.7,0.3-1.4,0.5-2,0.6
		c-0.7,0.2-1.5,0.3-2.3,0.5c-0.3,0.1-0.7,0.1-1,0.2c-0.2,0-0.4,0.1-0.6,0.1l-0.1,0l0,0c-0.1,0-0.2,0-0.3,0c-0.2,0-0.3,0-0.5,0
		l-0.1,0l0,0l0,0l0,0l0,0l-0.1,0c-0.1,0-0.2,0-0.4,0c-0.2,0-0.5,0-0.7,0l-0.1,0l-0.1,0c-0.1,0-0.1,0-0.2,0c-0.2,0-0.3,0-0.5,0
		c-0.3,0-0.6,0-0.9,0l-0.1,0l0,0l-0.1,0l0,0l-0.1,0l0,0l-0.4,0c-1.5-0.1-3-0.2-4.4-0.4c-0.5-0.1-1-0.2-1.5-0.2l-0.1,0l-0.1,0
		l-0.5-0.1c-0.6-0.1-1.2-0.2-2-0.4c-0.9-0.2-1.8-0.5-2.6-0.7l-0.1,0l-0.4-0.1c-0.3-0.1-0.5-0.1-0.8-0.2l-0.4-0.1l0,0
		c-1.1-0.3-2.4-0.6-3.6-1c-1.6-0.5-3-1-4.3-1.4c-1.3-0.5-2.6-1-3.7-1.5l-0.1,0l-0.1,0l-0.2-0.1l0,0l-0.2-0.1l0,0l0,0l-0.1,0
		c-1-0.5-2-0.9-3.1-1.4l-0.5-0.2l0,0c-1.3-0.5-2.4-1-3.2-1.4c-1.3-0.6-2.6-1.3-3.5-1.8c-1.2-0.6-2.4-1.3-3.7-2
		c-0.4-0.2-0.9-0.5-1.3-0.7c0,0,0.1,0.1,0.1,0.1l0,0l0,0l0.1,0.1c0.6,0.5,1.3,1,1.9,1.5c1.3,1,2.6,2,4.2,3c0.9,0.6,1.9,1.1,2.5,1.5
		l0,0l0.1,0l0.1,0.1l0.1,0l0.5,0.3c1.1,0.6,2.3,1.3,3.8,2.1c2.3,1.2,4.8,2.4,7.4,3.6c2.8,1.2,5.3,2.4,7.7,3.5l0.2,0.1l0.1,0l0.2,0.1
		l0.1,0l0.2,0.1c1,0.5,2.1,1,3.2,1.5l0.5,0.2l0.3,0.1c0.8,0.4,1.9,0.9,3,1.4c1,0.5,2.2,1.1,3.5,1.7l0.1,0.1c1.1,0.6,2.5,1.3,3.7,2
		c1.4,0.8,2.8,1.8,3.8,2.5c0.5,0.3,1,0.7,1.6,1.2c1,0.8,1.7,1.6,2.2,2.4c0.1,0.2,0.2,0.5,0.3,0.7c0.1,0.2,0.1,0.4,0.1,0.6l0,0.2
		c0,0.2,0,0.6,0,0.8c0,0.2-0.1,0.4-0.1,0.6c-0.1,0.2-0.2,0.4-0.3,0.7c-0.1,0.2-0.3,0.5-0.4,0.7l0,0l0,0c-0.1,0.2-0.2,0.3-0.3,0.4
		c-0.2,0.3-0.5,0.5-0.7,0.6c-0.4,0.3-0.8,0.5-1.2,0.6l-0.1,0c-0.4,0.2-0.7,0.3-1.2,0.4c-0.7,0.2-1.5,0.3-2.3,0.3c-0.2,0-0.3,0-0.5,0
		c-1.5-0.1-3.1-0.4-4.8-0.9c-2.8-0.9-5.6-2.1-8.1-3.2c-1.2-0.5-2.4-1.1-3.8-1.8c-1.1-0.5-2.2-1.2-3.1-1.8l-0.1,0l0,0l-0.3-0.2
		c-1.5-0.9-2.6-1.6-3.6-2.3c-1-0.7-2.1-1.5-3.5-2.5c-1-0.8-2.1-1.6-3.3-2.6c-0.8-0.7-1.6-1.5-2.3-2.1l0,0l-0.3-0.3l-0.4-0.4
		c-0.4-0.4-0.8-0.8-1.3-1.4c-0.2-0.2-0.3-0.4-0.5-0.5l-0.1-0.1c0.1,0.2,0.3,0.4,0.6,0.7c0.6,0.8,1.1,1.6,1.7,2.6
		c0.4,0.5,0.7,1.1,1.1,1.7l0,0.1l0,0.1l0,0.1l0.1,0.1l0,0l0,0.1l0,0l0,0.1l0,0c0.3,0.4,0.5,0.9,0.8,1.3c0.5,0.8,0.8,1.5,1.1,2.1
		c0.2,0.5,0.5,1.1,0.7,1.8c0.4,1.3,0.8,2.7,1,4.2c0.1,0.3,0.1,0.6,0.1,0.9c0,0.3,0,0.7,0,1c0,0.6-0.1,1.1-0.2,1.6
		c-0.2,0.5-0.3,0.9-0.4,1.3c-0.2,0.6-0.5,1.2-0.9,1.8c-0.1,0.2-0.3,0.4-0.4,0.6c-0.3,0.4-0.6,0.7-0.9,0.9c-0.2,0.2-0.6,0.4-1,0.4
		c-0.3,0.1-0.6,0.1-0.8,0.1C288.6,467.2,288.6,467.2,288.5,467.2L288.5,467.2L288.5,467.2z"/>
	<path class="st5" d="M304.6,451.4L304.6,451.4c0.1,0,0.1,0,0.2,0c0.2,0,0.4,0,0.6-0.1c0.2-0.1,0.3-0.2,0.4-0.4
		c0.1-0.1,0.1-0.2,0.1-0.4c0-0.1,0-0.3,0-0.5c0-0.1,0-0.3-0.1-0.5c-0.2-0.6-0.5-1.1-0.9-1.6c-0.4-0.5-0.9-1-1.4-1.4
		c-0.4-0.3-0.7-0.6-1.1-0.9c-0.8-0.6-1.6-1.3-2.5-1.8c-0.8-0.5-1.6-1-2.4-1.5c-0.8-0.5-1.7-1-2.5-1.5c-0.8-0.5-1.7-1-2.5-1.5
		c-0.8-0.5-1.7-1-2.5-1.4c-0.8-0.5-1.7-1-2.5-1.4c-0.8-0.5-1.6-1-2.4-1.4c-0.8-0.5-1.6-0.9-2.4-1.4c0,0-0.1-0.1-0.1-0.1
		c-0.3-0.3-0.7-0.6-1-0.9c-0.7-0.6-1.4-1.1-2.1-1.7c-0.7-0.6-1.4-1.2-2-1.8c-0.7-0.6-1.3-1.2-2-1.8c-0.7-0.7-1.3-1.3-2-2
		c-0.6-0.6-1.3-1.3-1.9-1.9c-1.4-1.3-2.7-2.7-4-4c-0.6-0.7-1.3-1.4-1.9-2c-0.6-0.7-1.3-1.3-1.9-1.9c-0.7-0.7-1.3-1.5-2-2.2
		c-0.6-0.7-1.2-1.4-1.8-2c-0.6-0.7-1.3-1.4-1.9-2.1c-0.6-0.7-1.2-1.4-1.8-2.2c-0.6-0.7-1.2-1.4-1.8-2.2c-0.6-0.7-1.2-1.4-1.8-2.1
		c-0.2-0.2-0.3-0.4-0.5-0.6c-0.1-0.2-0.3-0.4-0.4-0.6c-0.4-0.5-0.8-1-1.2-1.5c-0.3-0.4-0.6-0.8-1-1.2c-0.5-0.6-0.9-1.2-1.4-1.8
		c0,0,0,0,0,0c-0.4-0.5-0.8-1.1-1.3-1.6c-0.2-0.2-0.5-0.3-0.7-0.3c-0.3,0-0.6,0.1-0.8,0.3c-0.3,0.3-0.4,0.9-0.2,1.3
		c0.2,0.3,0.4,0.5,0.6,0.8c0.2,0.3,0.5,0.6,0.7,1c-0.1-0.1-0.1-0.1-0.2-0.2c0.6,0.7,1.1,1.4,1.6,2.1c0.6,0.7,1.1,1.4,1.7,2.1
		c0.2,0.2,0.3,0.4,0.5,0.6c0,0,0,0,0-0.1c0,0,0,0.1,0.1,0.1c0,0,0.1,0.1,0.1,0.1c0,0-0.1-0.1-0.1-0.1c0.2,0.2,0.4,0.5,0.6,0.7
		c-0.1-0.1-0.1-0.1-0.2-0.2c0.4,0.6,0.9,1.1,1.4,1.7c0.4,0.5,0.9,1,1.3,1.5c0.8,1,1.6,2,2.5,3c0.3,0.4,0.6,0.7,0.9,1.1
		c0.3,0.4,0.6,0.7,1,1c0.6,0.6,1.2,1.3,1.8,1.9c0.6,0.7,1.2,1.5,1.9,2.2c0.6,0.7,1.3,1.3,2,2c1.3,1.3,2.6,2.7,3.9,4
		c0.7,0.7,1.4,1.4,2.1,2c0.3,0.3,0.7,0.6,1,0.9c0.3,0.3,0.7,0.6,1,1c1.3,1.3,2.6,2.6,4,3.9c0,0,0.1,0.1,0.1,0.1c0,0.1,0,0.3,0.1,0.4
		c0.2,0.3,0.4,0.6,0.6,0.9c0.2,0.3,0.5,0.6,0.7,0.9c0.5,0.5,1,1,1.5,1.5c1,0.9,1.9,1.9,2.9,2.8c0.7,0.6,1.3,1.3,2,1.8
		c0.7,0.6,1.5,1.2,2.3,1.8c0.8,0.7,1.7,1.3,2.5,1.9c0.8,0.6,1.6,1.2,2.4,1.7c1.6,1.1,3.2,2.1,4.8,3.1c0.8,0.5,1.6,1,2.4,1.4
		c0.9,0.5,1.7,1,2.6,1.4c0.9,0.5,1.8,0.9,2.7,1.3c0.2,0.1,0.4,0.2,0.7,0.2C304.2,451.4,304.4,451.4,304.6,451.4L304.6,451.4z
		 M296.3,443.5L296.3,443.5c-0.4-0.3-0.9-0.5-1.3-0.8c-0.1-0.1-0.2-0.1-0.3-0.2c0.6,0.3,1.2,0.7,1.8,1c0.1,0.1,0.2,0.1,0.3,0.2
		C296.7,443.7,296.5,443.6,296.3,443.5L296.3,443.5z M250.5,403L250.5,403C250.5,403,250.5,403,250.5,403
		C250.5,403,250.5,403,250.5,403C250.5,403,250.5,403,250.5,403L250.5,403z"/>
	<path class="st5" d="M297.2,433.9L297.2,433.9c0.4,0.1,0.8,0.1,1.2,0.1c0.1,0,0.2,0,0.2,0c0.5,0,0.9-0.1,1.3-0.5
		c0.1-0.1,0.2-0.3,0.3-0.5c0-0.2,0-0.4,0-0.5c0-0.3-0.1-0.6-0.3-0.9c-0.2-0.3-0.4-0.6-0.7-0.8c-0.1-0.1-0.2-0.2-0.4-0.3
		c-0.2-0.2-0.4-0.3-0.6-0.4c-0.8-0.5-1.7-1-2.6-1.4c-0.9-0.4-1.8-0.7-2.8-1.1c-0.9-0.3-1.8-0.6-2.8-0.9c-0.9-0.3-1.8-0.5-2.7-0.8
		c-0.9-0.3-1.8-0.6-2.7-0.9c-0.9-0.3-1.8-0.5-2.6-0.8c-0.9-0.3-1.8-0.6-2.8-0.8c-0.9-0.3-1.8-0.5-2.7-0.8c-0.9-0.3-1.8-0.6-2.7-0.8
		c-0.8-0.2-1.7-0.5-2.5-0.8c-0.4-0.1-0.9-0.3-1.3-0.5c-0.4-0.1-0.8-0.2-1.2-0.3c-0.1,0-0.1,0-0.2,0c-0.3-0.2-0.6-0.4-0.9-0.5
		c-0.4-0.2-0.9-0.1-1.1,0.3c-0.2,0.4-0.1,0.9,0.3,1.1c0.2,0.1,0.4,0.2,0.7,0.4c0.1,0.3,0.2,0.5,0.5,0.7c0,0,0,0,0,0c0,0,0,0,0,0
		c0,0,0.1,0,0.1,0c0.3,0.1,0.5,0.3,0.8,0.4c1.8,0.9,3.6,1.8,5.4,2.5c0.1,0,0.1,0.1,0.2,0.1c0.7,0.4,1.4,0.7,2.1,1.1
		c1.7,0.9,3.5,1.7,5.2,2.5c0.9,0.4,1.9,0.8,2.8,1.2c0.9,0.4,1.9,0.7,2.8,1.1c0.9,0.4,1.8,0.7,2.7,1c0.9,0.3,1.8,0.6,2.7,0.9
		c0.9,0.3,1.9,0.5,2.9,0.8C296.4,433.8,296.8,433.9,297.2,433.9L297.2,433.9z M298,432.2L298,432.2L298,432.2c0,0-0.1-0.1-0.1-0.1
		C297.9,432.1,297.9,432.2,298,432.2c-0.2,0-0.4-0.1-0.6-0.1c0-0.1-0.1-0.1-0.1-0.2c-0.1-0.1-0.3-0.3-0.4-0.4
		c-0.1-0.1-0.1-0.1-0.2-0.2c0.3,0.2,0.7,0.4,1,0.6C297.8,432.1,297.9,432.1,298,432.2L298,432.2z M277.9,424.4L277.9,424.4
		C277.9,424.4,277.9,424.4,277.9,424.4C277.9,424.4,278,424.4,277.9,424.4C278,424.4,278,424.4,277.9,424.4L277.9,424.4z
		 M277.8,424.3L277.8,424.3C277.8,424.3,277.8,424.3,277.8,424.3C277.8,424.3,277.8,424.3,277.8,424.3
		C277.8,424.3,277.8,424.3,277.8,424.3L277.8,424.3z"/>
	<path class="st5" d="M297.9,433.4C297.9,433.3,297.9,433.3,297.9,433.4c-0.8-0.6-1.6-0.9-2.4-1.3c-2-0.8-4.1-1.5-6.1-2.3
		c-0.2-0.1-0.4-0.2-0.5-0.4c-0.1-0.2-0.2-0.4-0.1-0.7c0.1-0.2,0.2-0.4,0.4-0.5c0.2-0.1,0.5-0.2,0.7-0.1c1,0.4,2,0.7,3,1.1
		c0.1,0,0.1,0,0.2,0c0.6,0.2,1.2,0.4,1.8,0.7c0.2,0.1,0.4,0.1,0.6,0.2c0.2,0.1,0.5,0.2,0.7,0.3c0.2,0.1,0.3,0.1,0.5,0.2
		c0.2,0.1,0.4,0.1,0.6,0.2c0.3,0.1,0.6,0.2,0.9,0.4c0.3,0.2,0.5,0.4,0.8,0.6c0,0,0.1,0.1,0.1,0.1c0.1,0.1,0.2,0.2,0.2,0.4
		c0.1,0.2,0,0.5-0.1,0.7c-0.2,0.3-0.5,0.5-0.8,0.5C298.2,433.5,298.1,433.4,297.9,433.4L297.9,433.4L297.9,433.4z"/>
	<path class="st5" d="M282.9,453.1L282.9,453.1c0.3,0.1,0.5,0.3,0.8,0.3c0,0,0,0,0,0c0.4,0,0.7-0.1,1-0.4c0.2-0.2,0.3-0.4,0.4-0.7
		c0.1-0.4,0.1-0.7,0-1.1c-0.1-0.4-0.2-0.9-0.3-1.3c-0.2-0.5-0.3-0.9-0.5-1.3c-0.4-0.9-0.7-1.8-1.1-2.7c-0.4-0.8-0.8-1.7-1.2-2.5
		c-0.4-0.8-0.9-1.6-1.4-2.5c-0.5-0.9-1-1.7-1.6-2.6c-0.2-0.4-0.5-0.7-0.7-1.1c-0.2-0.4-0.5-0.8-0.7-1.2c-0.5-0.8-1-1.6-1.6-2.5
		c-0.2-0.4-0.5-0.7-0.7-1.1c0,0,0,0,0,0c-0.4-0.7-0.7-1.4-1-2.1c-0.9-1.7-1.8-3.4-2.7-5c-0.5-0.8-0.9-1.7-1.4-2.5
		c-0.1-0.2-0.2-0.4-0.3-0.5c-0.1-0.1-0.1-0.2-0.2-0.3c-0.1-0.1-0.1-0.2-0.2-0.3c-0.1-0.2-0.3-0.3-0.4-0.4c-0.2-0.1-0.5-0.2-0.8-0.1
		c0,0-0.1,0-0.1,0c-0.2-0.4-0.5-0.8-0.8-1.2c-0.1-0.2-0.3-0.3-0.5-0.4c-0.2-0.1-0.5,0-0.7,0.1c-0.4,0.3-0.6,0.8-0.3,1.2
		c0.2,0.3,0.4,0.7,0.6,1c0.2,0.3,0.4,0.6,0.6,0.9c0.4,0.7,0.8,1.4,1.3,2.1c0.2,0.4,0.4,0.7,0.6,1.1c0.2,0.3,0.4,0.6,0.6,0.9
		c0,0,0,0.1,0,0.1c0.2,0.4,0.4,0.8,0.6,1.2c0.4,0.9,0.9,1.7,1.3,2.6c0.4,0.8,0.8,1.6,1.2,2.4c0.4,0.8,0.8,1.7,1.2,2.6
		c0.4,0.8,0.8,1.6,1.2,2.4c0.4,0.8,0.8,1.7,1.2,2.5c0.2,0.4,0.4,0.9,0.6,1.3c0,0.1,0,0.1,0.1,0.2c0.1,0.3,0.2,0.5,0.4,0.8
		c0.1,0.4,0.3,0.7,0.4,1.1c0.4,0.9,0.8,1.9,1.2,2.8c0.4,0.9,0.8,1.7,1.2,2.6c0.4,0.8,0.9,1.6,1.5,2.3c0.2,0.3,0.4,0.5,0.7,0.8
		C282.4,452.7,282.6,452.9,282.9,453.1L282.9,453.1z M284,451.6L284,451.6C283.9,451.6,283.9,451.6,284,451.6
		C283.9,451.6,283.9,451.6,284,451.6L284,451.6z M269.4,422L269.4,422L269.4,422C269.4,422,269.4,422,269.4,422
		C269.4,422,269.4,422,269.4,422L269.4,422z"/>
	<path class="st5" d="M289.7,416.2L289.7,416.2c0.4,0,0.8,0,1.2,0c0.5,0,1.1,0,1.6,0c0.5,0,1.1-0.1,1.6-0.2c0.6-0.1,1.2-0.2,1.6-0.6
		c0.5-0.5,0.3-1.4-0.2-1.8c-0.4-0.4-0.9-0.7-1.5-0.9c-0.5-0.2-0.9-0.3-1.4-0.4c-1-0.3-2.1-0.4-3.1-0.5c-1-0.1-2-0.1-2.9-0.2
		c-1-0.1-1.9-0.1-2.9-0.1c-1,0-1.9,0-2.9,0c-1,0-2-0.1-3-0.1c-0.9-0.1-1.9-0.2-2.8-0.2c-0.5,0-1.1,0-1.6,0c-0.4,0-0.9,0-1.3,0
		c-1,0-2-0.1-2.9-0.1c-1-0.1-1.9-0.1-2.9-0.2c-0.6-0.1-1.2-0.2-1.8-0.3c-0.6-0.1-1.2-0.2-1.9-0.3c-0.6-0.1-1.2-0.2-1.8-0.3
		c-0.3-0.1-0.7-0.1-1-0.1c-0.2,0-0.4,0-0.6,0c-0.1,0-0.1,0-0.2,0c-0.2,0-0.3-0.1-0.5-0.1c-0.1,0-0.2,0-0.4,0.1
		c-0.3,0.1-0.5,0.3-0.6,0.6c0,0.1,0,0.3,0,0.4c0,0.1,0,0.1,0,0.2c0,0.2,0.1,0.3,0.3,0.4c0.2,0.3,0.6,0.4,0.9,0.5
		c0.2,0.1,0.3,0.1,0.5,0.2c0.3,0.1,0.7,0.2,1,0.3c0.7,0.2,1.3,0.3,2,0.5c1.3,0.3,2.6,0.5,3.9,0.8c0.4,0.1,0.7,0.1,1.1,0.2
		c1.4,0.3,2.8,0.5,4.2,0.7c2,0.3,4,0.5,5.9,0.7c0.9,0.1,1.7,0.2,2.6,0.4c0,0,0,0,0,0c0.8,0.1,1.6,0.2,2.4,0.3
		c0.9,0.1,1.7,0.1,2.6,0.2c0.8,0.1,1.6,0.1,2.3,0.1C288.1,416.1,288.9,416.1,289.7,416.2L289.7,416.2z M279.9,415.4L279.9,415.4
		c0,0-0.1,0-0.1,0C279.9,415.4,279.9,415.4,279.9,415.4L279.9,415.4z"/>
	<path class="st5" d="M263.2,441.5L263.2,441.5c0.1,0.1,0.3,0.1,0.4,0.1c0.2,0,0.3,0,0.5-0.1c0.3-0.1,0.5-0.3,0.7-0.6
		c0.2-0.3,0.3-0.6,0.3-0.9c0.1-0.2,0.1-0.4,0.1-0.6c0.1-0.4,0.1-0.9,0.2-1.4c0-0.5,0.1-1.1,0.1-1.6c0-0.5,0-0.9,0-1.4
		c0-0.4,0-0.8-0.1-1.2c0-0.5,0-1-0.1-1.5c0-0.5-0.1-0.9-0.1-1.4c-0.1-0.9-0.2-1.8-0.3-2.8c-0.1-0.9-0.2-1.8-0.4-2.6
		c-0.1-0.5-0.2-1-0.3-1.4c0-0.1,0-0.1,0-0.2c-0.1-0.4-0.2-0.8-0.3-1.2c-0.1-0.4-0.2-0.9-0.4-1.3c-0.1-0.5-0.3-0.9-0.4-1.4
		c-0.2-0.7-0.3-1.4-0.5-2.1c-0.1-0.7-0.2-1.4-0.3-2.2c-0.1-0.5-0.1-0.9-0.2-1.4c-0.1-0.4-0.2-0.7-0.3-1.1c-0.1-0.3-0.1-0.6-0.3-0.9
		c-0.1-0.3-0.3-0.6-0.5-0.8c-0.3-0.3-0.8-0.3-1.1-0.1c-0.3,0.2-0.5,0.5-0.4,0.9c0,0.2,0.1,0.3,0.2,0.5c0,0,0,0.1,0,0.1
		c0,0,0,0,0,0.1c0.1,0.3,0.2,0.5,0.3,0.8c0.1,0.2,0.1,0.5,0.2,0.7c0.1,0.4,0.2,0.8,0.2,1.2c0.1,0.4,0.1,0.8,0.2,1.3
		c0.1,0.7,0.2,1.4,0.3,2.1c0.2,1.5,0.2,3,0.3,4.6c0,0.9,0.1,1.8,0.2,2.6c0,0.9,0.1,1.8,0.2,2.7c0,0.9,0.1,1.8,0.1,2.8
		c0,0.5,0,1,0,1.5c0,0.5,0,0.9,0.1,1.4c0,0.9,0.1,1.8,0.2,2.7c0.1,0.9,0.2,1.8,0.3,2.7c0.1,0.3,0.1,0.7,0.3,0.9
		C262.7,441.2,262.9,441.4,263.2,441.5L263.2,441.5z M263.4,432L263.4,432c0-0.4,0-0.8,0-1.2c0,0.2,0,0.4,0.1,0.6
		c0.1,0.9,0.1,1.8,0.2,2.8c0,0.8,0.1,1.6,0,2.4c0-0.2-0.1-0.5-0.1-0.7c-0.1-0.7-0.1-1.3-0.1-2C263.4,433.4,263.4,432.7,263.4,432
		L263.4,432z"/>
	<path class="st5" d="M262.1,437.8c-0.4-0.3-0.4-0.9-0.1-1.2c0,0,0.1-0.1,0.1-0.1c0,0,0-0.1,0.1-0.1c0.2-0.6,0.2-1.2,0.3-1.8
		c0-0.9,0.1-1.7,0-2.6c-0.1-1-0.1-1.9-0.2-2.9c-0.1-0.9-0.3-1.8-0.4-2.6c-0.1-0.5-0.2-1-0.3-1.5c-0.1-0.4-0.1-0.9-0.1-1.3
		c0-0.5,0.3-0.9,0.8-1c0.5,0,0.9,0.3,1,0.8c0,0.4,0.1,0.9,0.2,1.3c0.1,0.5,0.2,1,0.3,1.5c0.2,0.9,0.3,1.8,0.4,2.7c0.1,1,0.2,2,0.2,3
		c0,0.4,0,0.9,0,1.3c0,0.5,0,1-0.1,1.5c0,0.4-0.1,0.8-0.1,1.1c0,0.2-0.1,0.4-0.1,0.6c-0.1,0.2-0.1,0.5-0.3,0.7
		c-0.1,0.2-0.2,0.3-0.3,0.5c-0.2,0.2-0.4,0.3-0.6,0.3C262.5,438,262.3,437.9,262.1,437.8L262.1,437.8L262.1,437.8z"/>
	<path class="st5" d="M246.4,430L246.4,430c0.2,0.1,0.4,0.1,0.6,0.1c0.1,0,0.2,0,0.3-0.1c0.3-0.1,0.6-0.4,0.9-0.6
		c0.7-0.8,1.2-1.7,1.5-2.7c0.2-0.5,0.4-1.1,0.5-1.6c0.1-0.5,0.2-1,0.3-1.4c0.1-0.5,0.2-0.9,0.3-1.4c0.1-0.5,0.1-0.9,0.2-1.4
		c0.2-2.1,0.4-4.2,0.5-6.3c0-1,0.1-2,0.1-3c0-1,0-2,0-3c0-0.5,0-1,0-1.4c0-0.7,0.1-1.5,0.1-2.2c0-0.5,0-1,0-1.5c0-0.3,0-0.6-0.1-0.9
		c0-0.1,0-0.2,0-0.2c0.1-0.5-0.2-0.9-0.7-1c-0.1,0-0.1,0-0.2,0c-0.1-0.1-0.3-0.1-0.5-0.1c-0.1,0-0.4,0.1-0.5,0.2
		c-0.2,0.2-0.2,0.2-0.4,0.4c-0.1,0.1-0.1,0.3-0.1,0.3c0,0.2,0,0.3,0,0.5c0,0.4,0,0.8,0,1.1c-0.1,1-0.2,2-0.3,3c-0.2,1-0.4,2-0.6,3
		c-0.2,1-0.4,1.9-0.7,2.9c-0.2,0.9-0.5,1.9-0.7,2.8c-0.2,0.9-0.5,1.9-0.7,2.8c-0.3,1-0.5,2-0.8,3c-0.1,0.5-0.2,1-0.3,1.4
		c-0.1,0.5-0.1,1.1-0.1,1.6c0,0.5,0,1,0,1.5c0,0.5,0.1,1,0.1,1.4c0,0.3,0.1,0.5,0.1,0.8c0,0.1,0,0.2,0.1,0.3c0,0.2,0.1,0.5,0.2,0.7
		c0.1,0.1,0.1,0.2,0.2,0.3c0.1,0.1,0.1,0.2,0.2,0.2C246.2,429.8,246.3,429.9,246.4,430L246.4,430z M247.5,428.5L247.5,428.5
		C247.5,428.5,247.5,428.5,247.5,428.5C247.5,428.5,247.5,428.5,247.5,428.5L247.5,428.5z M247.4,428.4L247.4,428.4
		C247.4,428.4,247.4,428.4,247.4,428.4C247.4,428.4,247.4,428.4,247.4,428.4C247.4,428.4,247.4,428.4,247.4,428.4L247.4,428.4
		L247.4,428.4z"/>
	<path class="st5" d="M269.4,403.8L269.4,403.8c0.4,0,0.8,0,1.2,0c0.6,0,1.2,0,1.8-0.1c1-0.1,2-0.2,3.1-0.2c1-0.1,2-0.2,3-0.3
		c0.5-0.1,1.1-0.2,1.6-0.3c0.1,0,0.3-0.1,0.4-0.1c0.1-0.1,0.3-0.1,0.5-0.2c0.2-0.2,0.4-0.3,0.6-0.6c0.1-0.1,0.1-0.2,0.1-0.3
		c0-0.1,0-0.4,0-0.6c-0.1-0.2-0.1-0.3-0.2-0.5c-0.1-0.1-0.2-0.2-0.3-0.3c-0.1-0.1-0.2-0.2-0.2-0.2c-0.3-0.3-0.7-0.5-1.1-0.6
		c-0.5-0.2-0.9-0.4-1.4-0.5c-1-0.2-2.1-0.2-3.1-0.2c-0.5,0-1,0-1.5,0.1c-0.5,0-1,0.1-1.6,0.1c-1,0.1-1.9,0.3-2.9,0.4
		c-0.6,0.1-1.1,0.2-1.7,0.2c-0.6,0.1-1.2,0.2-1.8,0.2c-1,0.1-2,0.2-3,0.3c-0.5,0-0.9,0.1-1.4,0.1c-0.5,0-1,0.1-1.4,0.1
		c-0.5,0-1,0.1-1.5,0.1c-0.5,0-0.9,0.1-1.4,0.1c-0.9,0-1.9,0-2.8-0.1c0.1,0,0.2,0,0.3,0c-0.4,0-0.9-0.1-1.3-0.1
		c-0.2,0-0.4-0.1-0.6-0.1c-0.2,0-0.3,0-0.5-0.1c0,0,0,0,0,0c0,0,0,0,0,0c0,0-0.1,0-0.1,0c-0.2,0-0.3,0-0.5,0c-0.1,0-0.3,0-0.4,0.1
		c-0.1,0-0.2,0-0.3-0.1c-0.2,0-0.3,0-0.5-0.1c-0.2,0-0.4,0-0.6,0.1c-0.2,0.1-0.3,0.3-0.4,0.5c0,0.2,0,0.4,0.1,0.6
		c0.1,0.2,0.3,0.4,0.5,0.4c0.2,0,0.4,0,0.5,0.1c0.2,0,0.3,0.1,0.5,0.1c0,0,0,0,0.1,0c0.1,0.1,0.2,0.1,0.3,0.2c0.2,0,0.3,0.1,0.5,0.1
		c0.5,0.2,1.1,0.3,1.7,0.3c0.6,0.1,1.3,0.2,2,0.2c0.6,0.1,1.2,0.2,1.8,0.3c0.4,0.1,0.9,0.1,1.3,0.1c0,0,0.1,0.1,0.1,0.1
		c0.2,0.1,0.3,0.1,0.5,0.1c0.1,0,0.2,0,0.3,0c0.1,0,0.2,0,0.3-0.1c1.2,0.1,2.4,0.1,3.5,0.2c1,0.1,1.9,0.1,2.9,0.2
		C267.4,403.8,268.4,403.8,269.4,403.8L269.4,403.8z M254,402.5L254,402.5C254,402.5,254,402.5,254,402.5
		C254,402.5,254,402.5,254,402.5L254,402.5z M253.8,402.5L253.8,402.5C253.8,402.5,253.8,402.5,253.8,402.5
		C253.8,402.5,253.8,402.5,253.8,402.5L253.8,402.5z M257.5,400.8L257.5,400.8L257.5,400.8C257.5,400.8,257.5,400.8,257.5,400.8
		c-0.1,0-0.1,0-0.2,0C257.4,400.8,257.4,400.8,257.5,400.8L257.5,400.8z M257.3,400.8L257.3,400.8c-0.1,0-0.1,0-0.2,0c0,0,0,0,0,0
		C257.1,400.7,257.2,400.7,257.3,400.8L257.3,400.8z"/>
	<path class="st5" d="M268.5,423.8L268.5,423.8c0.2,0.1,0.4,0.2,0.6,0.2c0.1,0,0.2,0,0.3-0.1c0.2,0,0.3,0,0.5-0.1
		c0.2,0,0.4-0.1,0.6-0.3c0.1-0.2,0.2-0.4,0.2-0.6c0-0.2-0.1-0.4-0.3-0.6c-0.2-0.1-0.4-0.3-0.6-0.5c-0.1-0.1-0.2-0.2-0.4-0.4
		c0,0,0,0,0,0c-0.4-0.4-0.7-0.9-1.1-1.3c-0.4-0.4-0.8-0.9-1.2-1.3c-0.2-0.2-0.4-0.4-0.7-0.6c0,0-0.1-0.1-0.1-0.1
		c-0.1-0.1-0.1-0.1-0.2-0.2c-0.1-0.1-0.2-0.2-0.3-0.2c-0.1-0.1-0.2-0.1-0.3-0.1c-0.1-0.1-0.1-0.1-0.2-0.2c-0.2-0.2-0.3-0.3-0.5-0.5
		c0,0-0.1,0-0.1-0.1c-0.5-0.6-0.9-1.2-1.4-1.8c-0.2-0.3-0.5-0.6-0.7-0.9c-0.3-0.4-0.6-0.7-0.9-1.1c-0.6-0.7-1.2-1.4-1.8-2.1
		c-0.3-0.3-0.6-0.7-1-1c-0.4-0.3-0.7-0.6-1-1c-0.1-0.2-0.4-0.2-0.6-0.2c-0.2,0-0.5,0.1-0.6,0.3c-0.2,0.2-0.2,0.4-0.2,0.6
		c0,0.2,0.1,0.3,0.1,0.4c0.2,0.3,0.5,0.6,0.8,0.9c0.2,0.2,0.4,0.4,0.6,0.6c0.4,0.4,0.8,0.8,1.2,1.2c0.4,0.4,0.7,0.8,1.1,1.2
		c0.3,0.4,0.7,0.8,1,1.2c0.1,0.1,0.1,0.1,0.2,0.2c0,0,0,0,0,0c0.2,0.2,0.3,0.4,0.5,0.6c0.2,0.2,0.4,0.4,0.5,0.6
		c0.4,0.5,0.8,1,1.2,1.5c0.2,0.3,0.5,0.5,0.7,0.7c0.2,0.2,0.4,0.5,0.6,0.7c0.4,0.4,0.7,0.9,1.1,1.3c0,0,0,0-0.1-0.1
		c0.2,0.3,0.5,0.6,0.7,0.9c0,0.1,0.1,0.1,0.2,0.2c0.2,0.2,0.4,0.4,0.5,0.6c0.2,0.2,0.4,0.5,0.6,0.7
		C268.2,423.5,268.4,423.7,268.5,423.8L268.5,423.8z M267.9,423L267.9,423C267.9,423,267.9,423,267.9,423
		C267.9,423,267.9,423,267.9,423L267.9,423z M261.5,415.4L261.5,415.4C261.5,415.4,261.4,415.4,261.5,415.4
		C261.4,415.4,261.5,415.4,261.5,415.4L261.5,415.4z M261.3,415.3L261.3,415.3C261.3,415.2,261.3,415.2,261.3,415.3
		C261.3,415.2,261.3,415.2,261.3,415.3L261.3,415.3z"/>
</g>
</svg>
