<?xml version="1.0" encoding="utf-8"?>
<!-- Generator: Adobe Illustrator 21.0.0, SVG Export Plug-In . SVG Version: 6.00 Build 0)  -->
<svg version="1.1" id="OBJECTS" xmlns="http://www.w3.org/2000/svg" xmlns:xlink="http://www.w3.org/1999/xlink" x="0px" y="0px"
	 viewBox="0 0 750 500" style="enable-background:new 0 0 750 500;" xml:space="preserve">
<style type="text/css">
	.st0{opacity:0.57;}
	.st1{fill:url(#SVGID_1_);}
	.st2{fill:url(#SVGID_2_);}
</style>
<g class="st0">
	
		<linearGradient id="SVGID_1_" gradientUnits="userSpaceOnUse" x1="185.9481" y1="286.7414" x2="236.4542" y2="286.7414" gradientTransform="matrix(0.9761 -0.2172 0.2172 0.9761 -56.7245 48.7533)">
		<stop  offset="0" style="stop-color:#4BAB83"/>
		<stop  offset="1" style="stop-color:#91D8C5"/>
	</linearGradient>
	<path class="st1" d="M194.1,320c-2.2-9.7,0.6-18.4,1.4-28.3c0.8-9.9,3.9-19.7,9.7-27.7c2.3,3,4.2,6.3,5.6,9.8
		c-1.2-4.6-2.4-9.6-0.3-13.9c0.9-1.9,2.3-3.4,3.9-4.8c4.4-4.1,9.4-7.4,14.9-9.7c0,7.7-3.8,15.3-10,19.8c3-0.8,5.8-2.1,8.3-3.9
		c-0.3,10.2-7.3,19.9-16.8,23.5c2.7,0.2,5.5-0.2,8-1.3c-3.3,15-15,18.4-23.1,36.4"/>
</g>
<g>
	
		<linearGradient id="SVGID_2_" gradientUnits="userSpaceOnUse" x1="185.9747" y1="306.6231" x2="235.0773" y2="306.6231" gradientTransform="matrix(0.885 -0.1197 0.1186 0.8941 -16.2991 57.553)">
		<stop  offset="0" style="stop-color:#4BAB83"/>
		<stop  offset="1" style="stop-color:#91D8C5"/>
	</linearGradient>
	<path class="st2" d="M186.9,326.7c2.5-4,7.4-6.3,12.1-5.7c2.7,0.3,5.2,1.5,7.9,1.4c2.7-0.1,5.6-2.3,5-5c-0.5-2.3-3.3-3.2-5.7-3.6
		c0-1.3,1.3-2.2,2.6-2.2c1.2-0.1,2.4,0.4,3.6,0.9c1.9,0.7,4,1.3,5.8,0.5c1.8-0.9,2.6-3.8,0.9-4.9c-1.3-0.9-3.2-0.1-4.6-0.9
		c-0.4-1.9,1.4-3.7,3.2-4.3c1.9-0.6,3.9-0.4,5.8-0.9c1.9-0.5,3.8-2,3.7-4c-0.1-1.9-2.2-3.3-4.1-3.2c-1.9,0-3.7,1.1-5.3,2.1
		c-1.6-2.1,2.2-5,1.3-7.6c-0.6-1.7-2.9-2-4.4-1.1c-1.5,0.9-2.3,2.6-3.1,4.2c-1.4,3.1-2.9,6.2-4.3,9.4c-2,0.2-0.8-4-2.7-4.8
		c-1.1-0.5-2.1,0.7-2.6,1.7c-1.8,3.8-1.6,8.3-2.9,12.4c-0.3,1-1.1,2.2-2.1,2c-2.5-0.4,0.1-5.9-2.3-6.4c-0.9-0.2-1.7,0.6-2.1,1.4
		c-2.7,4.7-1.4,11.7-5.8,15"/>
</g>
</svg>
