<?xml version="1.0" encoding="utf-8"?>
<!-- Generator: Adobe Illustrator 21.0.0, SVG Export Plug-In . SVG Version: 6.00 Build 0)  -->
<svg version="1.1" id="OBJECTS" xmlns="http://www.w3.org/2000/svg" xmlns:xlink="http://www.w3.org/1999/xlink" x="0px" y="0px"
	 viewBox="0 0 750 500" style="enable-background:new 0 0 750 500;" xml:space="preserve">
<style type="text/css">
	.st0{opacity:0.57;}
	.st1{fill:url(#SVGID_1_);}
	.st2{fill:url(#SVGID_2_);}
	.st3{fill:url(#SVGID_3_);}
</style>
<g class="st0">
	
		<linearGradient id="SVGID_1_" gradientUnits="userSpaceOnUse" x1="34.0165" y1="268.0829" x2="90.6108" y2="268.0829" gradientTransform="matrix(0.8258 -8.500000e-02 8.320000e-02 0.7852 -6.9783 77.2403)">
		<stop  offset="0" style="stop-color:#4BAB83"/>
		<stop  offset="1" style="stop-color:#91D8C5"/>
	</linearGradient>
	<path class="st1" d="M86.8,312.7l-18.5-11.2c-1.2-0.7-0.6-2.5,0.9-2.5c3.9,0.1,7.7,1.2,10.7,3.2c-1-4.6-6.6-7-11.6-8.8
		c-4-1.4-8.3-3.1-10.5-6.1c-0.9-1.2,0.1-2.8,1.8-2.9c3.7-0.2,7.4,0.6,10.6,2.1c-5.6-4.1-11.8-7.4-18.5-10c-1.5-0.6-3.2-1.3-4.4-2.2
		c-1.6-1.2-0.7-3.5,1.4-3.6c2.4-0.1,4.7,0.1,7,0.8c-6.6-3.6-13.8-7.8-15.2-14.5c-0.3-1.4-0.3-3,1.6-3.9c0.8-0.4,1.7-0.6,2.6-0.5
		c2.1,0.1,3.7,1.3,5.2,2.5c3.5,2.9,6.5,6.3,8.7,10c0.4,0.7,1.5,0.5,1.7-0.2c0.7-2.4-1.6-6.1,0.9-7.7c1.2-0.7,2.8-0.5,3.8,0.4
		c1.8,1.7,1.5,3.9,1.4,6c-0.3,4.9,0.7,9.8,2.7,14.3c1-1,2-1.9,3-2.9c2.1-2,5.7-0.8,5.9,1.8c0.2,3.8-1.4,8.4-0.1,12.1
		c0.2,0.6,0.5,1.2,1.5,1.1c0.9-0.1,1.6-0.7,1.7-1.5c0.7-3.2,5-2.2,6,0c0.8,1.8,0.1,3.9-0.6,5.8c-0.7,1.9-1.5,3.9-0.7,5.8l3.4-2.3
		c1.4-0.9,3.3,0,3,1.5c-0.3,1.6-1.2,3.2-2.1,4.7c-1.5,2.4-2.9,5.7-0.8,7.7"/>
</g>
<g>
	
		<linearGradient id="SVGID_2_" gradientUnits="userSpaceOnUse" x1="71.9528" y1="301.8793" x2="90.89" y2="301.8793" gradientTransform="matrix(1.1815 -0.6873 0.5657 0.9724 -194.2129 72.8657)">
		<stop  offset="0" style="stop-color:#4BAB83"/>
		<stop  offset="1" style="stop-color:#91D8C5"/>
	</linearGradient>
	<path class="st2" d="M93.2,325.6c-12.5-12.5-26.9-23.8-43.4-28.9c4.2-0.1,8.5-0.1,12.7,1c5.3,1.4,8.8,3.3,11.2,4.6
		c6.8,3.8,9.8,6.9,16.1,11.6"/>
</g>
<g>
	
		<linearGradient id="SVGID_3_" gradientUnits="userSpaceOnUse" x1="72.4874" y1="304.9866" x2="86.6727" y2="304.9866" gradientTransform="matrix(1.0325 -0.8958 0.7372 0.8497 -232.4674 129.2617)">
		<stop  offset="0" style="stop-color:#4BAB83"/>
		<stop  offset="1" style="stop-color:#91D8C5"/>
	</linearGradient>
	<path class="st3" d="M91.7,325.4c-11-7.5-23.1-13.7-36-15.2c3.1-0.7,6.3-1.2,9.5-1c4.1,0.3,6.9,1.2,8.9,1.9
		c5.6,1.8,8.2,3.7,13.5,6.3"/>
</g>
</svg>
