<?xml version="1.0" encoding="utf-8"?>
<!-- Generator: Adobe Illustrator 21.0.0, SVG Export Plug-In . SVG Version: 6.00 Build 0)  -->
<svg version="1.1" id="OBJECTS" xmlns="http://www.w3.org/2000/svg" xmlns:xlink="http://www.w3.org/1999/xlink" x="0px" y="0px"
	 viewBox="0 0 750 500" style="enable-background:new 0 0 750 500;" xml:space="preserve">
<style type="text/css">
	.st0{fill:#47A1D8;}
	.st1{fill:#235087;}
	.st2{fill:#1FA366;}
	.st3{fill:#010A3F;}
</style>
<g>
	<path class="st0" d="M88.2,67.1C88.2,67.1,88.2,67.1,88.2,67.1c0.3,0,0.4,0,0.7,0.1c0.2,0.1,0.4,0.1,0.6,0.2
		c0.1,0.1,0.3,0.1,0.4,0.2c0.4,0.2,0.7,0.4,1,0.7c0.2,0.1,0.3,0.3,0.5,0.4c0.1,0.1,0.2,0.2,0.2,0.2c0.2,0.1,0.3,0.3,0.5,0.4
		c0.3,0.3,0.6,0.6,0.9,0.9c1,1,2.1,2,3.1,3.2c0.4,0.5,0.9,1.1,1.3,1.7l0.1,0.1c0.4,0.5,0.7,1,1.1,1.5c0.8,1.3,1.5,2.6,2.2,3.8
		c0.7,1.2,1.3,2.4,1.8,3.5c1.3,2.6,2.5,5.4,3.6,8.2c0.3,0.7,0.5,1.4,0.8,2c0.7,1.9,1.5,3.8,2.3,5.6c0.6,1.3,1.2,2.6,1.7,3.8l0.1,0.3
		c0.5,1.1,1.1,2.4,1.8,3.8c0.3,0.6,0.5,1.2,0.8,1.8l0.1,0.3c0.3,0.6,0.5,1.2,0.7,1.8l0.1,0.2c0.5,1.3,0.9,2.7,1.2,3.9
		c0.3,1.4,0.6,2.9,0.9,4.6c0.1,0.6,0.2,1.2,0.3,1.8l0,0.4c0.1,0.7,0.2,1.5,0.3,2.2c0.1,1.3,0.2,2.7,0.3,4.3c0,0.5,0,1.1,0,1.6l0,0.3
		c0,0.9,0,1.7,0,2.3c-0.1,3.1-0.3,6.1-0.7,8.9c-0.2,1.3-0.4,2.6-0.7,4.1c-0.3,1.3-0.6,2.8-0.9,4.2c-0.8,2.9-1.5,5.7-2.3,8.4
		c-0.6,2.1-1.3,4.2-1.9,6.3l-0.6,1.8c-0.8,2.6-1.6,5.3-2.2,8.1c0,0.2-0.1,0.3-0.1,0.5c-0.1,0.5-0.2,1.1-0.3,1.6
		c-0.1,0.8-0.2,1.6-0.3,2.3l-0.1,0.6c-0.1,0.5-0.1,1-0.2,1.5c-0.1,0.5-0.1,1-0.1,1.5l0,0.4l0,0.3l0,0.3l0,0.1
		c-0.1,2-0.2,4.1-0.2,6.2c0,0.3,0,0.5,0,0.8c0.3,0.9,0.6,1.9,0.8,2.8c0.1,0.6,0.3,1.2,0.5,1.8c0.2,0.5,0.3,1.1,0.5,1.7
		c0.2,0.7,0.3,1.3,0.4,1.9c0,0.2,0.1,0.3,0.1,0.5l0,0.3c0,0.1,0.1,0.2,0.1,0.3c0,0.1,0.1,0.3,0.1,0.5l0,0.1l0,0.1c0,0.1,0,0.2,0,0.2
		c0,0.3,0,0.6-0.2,0.9c-0.2,0.4-0.6,0.7-1,0.9c-0.2,0.1-0.4,0.1-0.6,0.1c-0.3,0-0.5-0.1-0.8-0.2c-0.4-0.2-0.8-0.6-0.9-1
		c0-0.2-0.1-0.3-0.1-0.5l0-0.1c0,0,0-0.1,0-0.1c-0.1-0.3-0.1-0.5-0.2-0.8l0-0.2c0-0.2-0.1-0.4-0.1-0.6c0-0.2-0.1-0.4-0.1-0.6
		c-0.2-0.7-0.4-1.4-0.6-2.1c-0.1-0.4-0.2-0.8-0.3-1.1c-0.1-0.3-0.1-0.5-0.2-0.8c-0.1-0.3-0.2-0.7-0.3-1.1c-0.2-0.7-0.4-1.3-0.6-1.9
		c-0.2-0.7-0.5-1.4-0.8-2.1c-0.2-0.5-0.4-0.9-0.6-1.4c-0.4-1.1-0.8-2.2-1.4-3.6c-0.2-0.5-0.4-1.1-0.7-1.6l-0.2-0.4
		c-0.2-0.5-0.4-1-0.6-1.5l-0.1-0.2c-0.1-0.4-0.3-0.8-0.4-1.3c-0.1-0.2-0.1-0.4-0.2-0.6l-0.2-0.6c-0.2-0.5-0.3-0.9-0.4-1.4
		c-0.4-1.1-0.8-2.3-1.3-3.8l-0.1-0.1c-0.2-0.6-0.5-1.2-0.7-1.8c-0.1-0.4-0.3-0.8-0.4-1.2c-0.1-0.3-0.2-0.5-0.3-0.8
		c-0.2-0.4-0.3-0.9-0.5-1.3c-0.1-0.2-0.2-0.5-0.2-0.7c-0.2-0.7-0.5-1.3-0.7-1.9l0,0c-0.5-1.2-1-2.5-1.4-3.8c-0.5-1.4-0.8-2.7-1.2-4
		c-0.2-0.9-0.4-1.6-0.5-2.2c-0.1-0.7-0.2-1.4-0.2-2.1c0-1.1,0.1-2.2,0.3-3.4c0-0.2,0.1-0.5,0.1-0.7c0.1-0.3,0.1-0.5,0.1-0.8
		c0.1-0.4,0.1-0.8,0.2-1.3c0-0.4,0-0.8,0-1.2c0-0.4-0.1-0.8-0.2-1.2c-0.2-0.8-0.4-1.5-0.7-2.2c-0.3-0.6-0.6-1.3-0.9-1.9l0-0.1
		c-0.6-1.2-1.3-2.4-2.1-3.5c-0.7-1-1.3-2.1-2.2-3.5c-1.6-2.7-2.7-5.3-3.2-7.9c-0.1-0.6-0.2-1.1-0.3-1.6c-0.1-0.3-0.1-0.7-0.1-1
		l0-0.2c0-0.4,0-0.9,0-1.3c0-0.4,0-0.7,0.1-1.1c0-0.5,0.2-1.1,0.4-1.7c0.3-0.9,0.6-1.7,1-2.5l0,0c0.3-0.7,0.6-1.5,0.8-2.2
		c0.1-0.4,0.2-0.8,0.4-1.2c0.1-0.5,0.2-1,0.3-1.6c0-0.4,0-0.9-0.1-1.4c-0.1-0.6-0.3-1.2-0.5-1.7c-0.2-0.6-0.5-1.2-0.8-1.8l0-0.1
		c-0.3-0.6-0.6-1.3-0.9-1.9c-0.3-0.7-0.6-1.4-1-2c-0.2-0.5-0.5-1.1-0.7-1.6l-0.1-0.3c-0.3-0.7-0.5-1.3-0.6-1.8
		c-0.4-1.4-0.8-2.9-0.9-4.5c0-0.7-0.1-1.5,0-2.4c0-0.7,0.1-1.3,0.2-2c0.1-0.6,0.2-1.2,0.4-1.8c0.2-0.7,0.5-1.4,0.8-2.1
		c0.1-0.3,0.3-0.6,0.4-1c0.4-0.9,0.8-1.8,1.1-2.8c0.4-1,0.8-2.1,1.2-3.5l0.1-0.2c0.2-0.5,0.3-1,0.5-1.6c0.2-0.7,0.4-1.4,0.5-2.2
		c0.3-1.5,0.7-2.9,1.2-4.3c0.3-0.7,0.5-1.4,0.9-2C86.8,67.6,87.4,67.1,88.2,67.1L88.2,67.1L88.2,67.1z"/>
	<path class="st1" d="M8.6,88c0.5,0,1.1,0.1,1.5,0.1c0.8,0.1,1.4,0.2,2.1,0.4c0.7,0.2,1.3,0.4,2,0.7l0.3,0.1
		c2.6,0.9,5.2,2.1,7.7,3.3c1.4,0.7,2.8,1.3,4,1.9l0.3,0.1c1.2,0.6,2.3,1.1,3.5,1.7c2.5,1.2,5.1,2.5,7.8,4c1.4,0.7,2.7,1.5,3.7,2
		l0.7,0.4c1,0.6,2,1.1,2.9,1.8c2.2,1.4,4.5,3.1,7,5.1c1.2,1,2.3,1.8,3.3,2.7c1,0.9,2,1.8,3.1,2.9c1.8,1.7,3.5,3.7,5.1,5.5l0.6,0.7
		c1.8,2,3.6,4.3,5.6,6.9c1.8,2.4,3.4,4.9,4.7,7.2l0.4,0.7c0.5,0.8,1.1,1.8,1.7,2.8c0.6,1.1,1.2,2.1,1.8,3.2l0.4,0.8
		c0.7,1.3,1.4,2.6,2.1,3.8l0.4,0.8c0.6,1.1,1.1,2.1,1.7,3.2c0.6,1.2,1.2,2.5,1.8,3.8c0.6,1.3,1.2,2.7,1.8,4.2c0.3,0.8,0.6,1.5,1,2.3
		c0.2,0.5,0.4,0.9,0.6,1.4c0.3,0.7,0.6,1.5,0.9,2.2c0.2,0.4,0.4,0.9,0.5,1.3l0,0.1l0.1,0.3l0.1,0.3c0.5,1.4,1,2.8,1.5,4.2l0,0
		c0.4,1.2,0.9,2.4,1.3,3.6c0.6,1.5,1.1,3,1.6,4.4l0,0.1c0.4,1,0.8,2.2,1.2,3.4c0.9,2.5,1.9,4.9,3,7.1c0.1,0.3,0.3,0.5,0.4,0.8
		c0.3,0.6,0.6,1.2,0.9,1.8l0.3,0.7l0.2,0.3c0.2,0.5,0.4,0.9,0.7,1.4c0.5,1,0.9,1.8,1.3,2.5c0.2,0.4,0.4,0.8,0.5,1.2l0.1,0.2l0,0.1
		c0.1,0.3,0.3,0.6,0.4,0.9c0.2,0.4,0.4,0.7,0.6,1.1l0,0.1l0,0.1l0.1,0.2c0.2,0.3,0.2,0.6,0.2,0.9c-0.1,0.3-0.3,0.6-0.5,0.8
		c-0.1,0.1-0.2,0.1-0.4,0.2c-0.3,0.3-0.8,0.5-1.2,0.5c-0.3,0-0.5-0.1-0.8-0.2c-0.6-0.2-0.8-0.7-1.1-1.2c-0.1-0.2-0.2-0.3-0.3-0.5
		l-0.2-0.3l0,0c-0.3-0.4-0.5-0.8-0.8-1.1c-0.5-0.5-0.9-1-1.4-1.4c-0.6-0.6-1.2-1.2-1.7-1.9c-0.8-0.9-1.7-1.7-2.5-2.4
		c-0.9-0.8-1.9-1.6-2.9-2.4c-1.2-0.9-2.2-1.6-3.1-2.3l-0.4-0.3c-0.8-0.6-1.6-1.1-2.4-1.8c-0.9-0.8-1.7-1.7-2.4-2.5
		c-0.4-0.5-0.9-1-1.4-1.6l-0.3-0.4c-0.2-0.3-0.5-0.6-0.8-0.9c-1.6-2-2.8-4.4-3.8-6.6c-0.2-0.4-0.5-0.9-0.7-1.4
		c-0.3-0.6-0.7-1.1-1.1-1.7c-0.8-0.9-1.5-1.5-2.3-2.1c-1.2-0.8-2.2-1.3-3.3-1.8c-0.4-0.2-0.8-0.3-1.2-0.5l0,0L67,168
		c-0.1,0-0.3-0.1-0.4-0.1c-0.7-0.2-1.3-0.5-2-0.7c-1.2-0.5-2.5-1-3.8-1.6c-1.4-0.7-2.6-1.3-3.6-2c-0.9-0.5-1.8-1.2-2.7-2
		c-0.5-0.4-0.9-1-1.2-1.4c-0.4-0.5-0.7-1-0.9-1.5c-0.2-0.4-0.4-0.8-0.6-1.2l0-0.1c-0.2-0.4-0.3-0.8-0.4-1.1
		c-0.2-0.4-0.3-0.9-0.4-1.3c-0.3-0.9-0.5-1.9-0.7-2.7l0-0.2c-0.3-1.3-0.5-2.6-1-3.8c-0.2-0.4-0.5-0.8-0.8-1.2
		c-0.5-0.5-1.1-0.9-1.5-1.3c-1.2-0.7-2.4-1.3-3.5-1.8l-0.7-0.3c-0.9-0.4-2.1-0.9-3.1-1.5c-0.6-0.3-1.1-0.6-1.8-1
		c-0.7-0.4-1.5-1-2.2-1.6c-0.4-0.4-0.8-0.8-1.1-1.2l-0.1-0.1c-0.3-0.3-0.5-0.7-0.7-1c-0.2-0.4-0.4-0.8-0.6-1.2l0-0.1
		c-0.3-0.6-0.6-1.3-0.8-2c-0.2-0.6-0.3-1.3-0.4-2c-0.2-0.7-0.3-1.4-0.5-2.1c-0.2-0.6-0.4-1.2-0.7-1.9c-0.2-0.3-0.4-0.7-0.6-1.1
		c-0.2-0.4-0.5-0.8-0.8-1.2c-0.1-0.2-0.3-0.4-0.6-0.6c-0.2-0.2-0.5-0.4-0.8-0.7c-1-0.6-2-1.1-3-1.6l-0.4-0.2
		c-1.2-0.6-2.5-1.3-3.8-1.9c-0.4-0.2-0.9-0.5-1.2-0.7l0,0l-0.4-0.2c-0.6-0.3-1.4-0.8-2.1-1.3c-1.1-0.8-2.2-1.8-3.3-3.1
		c-0.5-0.6-0.9-1.1-1.2-1.6c-0.4-0.6-0.7-1.2-1.1-1.9c-0.8-1.4-1.4-2.9-1.9-4c-0.5-1.2-0.9-2.5-1.3-3.9c-0.1-0.3-0.2-0.7-0.3-1
		l-0.1-0.2l-0.1-0.2l0-0.1c-0.2-0.8-0.5-1.6-0.7-2.4c-0.2-0.6-0.3-1.2-0.5-1.9l0-0.1l0-0.1c-0.2-0.7-0.3-1.4-0.4-2.2
		c-0.2-1.3-0.4-2.6-0.6-4c0-0.5,0-1,0-1.6l0-0.1l0-0.1l0.1-0.2l0.1-0.4c0.1-0.2,0.2-0.4,0.4-0.7c0.4-0.5,1.1-0.8,1.8-0.9
		C8.1,88,8.4,88,8.6,88L8.6,88L8.6,88z"/>
	<path class="st1" d="M87.7,67.1c0.3,0.1,0.6,0.3,0.8,0.5c0.4,0.8,0.8,1.5,1.1,2.3c0.3,0.8,0.6,1.7,0.8,2.5c0.5,1.6,1.1,3.1,1.5,4.7
		c0.5,1.7,1.1,3.3,1.6,5c0.5,1.5,0.9,3.1,1.4,4.6c0.5,1.6,1,3.3,1.4,4.9c0.5,1.6,0.8,3.2,1.1,4.8c0.2,0.8,0.3,1.7,0.3,2.6
		c0.1,0.9,0.1,1.7,0.1,2.6c0,1.6-0.1,3.2-0.2,4.8c-0.1,1.3-0.2,2.5-0.2,3.8c-0.1,1.1,0,2.3,0.2,3.4c0.1,0.7,0.3,1.4,0.6,2
		c0.3,0.8,0.6,1.6,1,2.4c0.7,1.5,1.3,3,2,4.6c0.3,0.7,0.5,1.4,0.7,2.1c0.2,0.8,0.4,1.7,0.5,2.5c0.1,0.8,0.1,1.6,0.1,2.3
		c0,0.9-0.1,1.8-0.1,2.6c-0.1,1-0.2,2-0.3,3c-0.1,0.6-0.1,1.1-0.2,1.7c-0.1,0.5-0.2,1-0.2,1.5c0,0.4,0,0.8,0,1.1
		c0.3,1.5,0.9,2.9,1.4,4.4c0.6,1.6,1.2,3.1,1.7,4.7c0.5,1.5,0.8,3.1,0.8,4.7c0,0.8,0,1.7,0,2.5c-0.1,0.9-0.1,1.7-0.2,2.6
		c-0.1,0.9-0.2,1.8-0.3,2.8c-0.1,1.3-0.1,2.6,0,3.8c0.1,0.7,0.2,1.4,0.3,2.1c0.1,0.7,0.2,1.4,0.3,2.1c0.2,1.4,0.3,2.9,0.4,4.4
		c0.1,1.4,0.3,2.8,0.5,4.2c0.3,1.5,0.6,3,0.9,4.5c0.1,0.8,0.2,1.6,0.3,2.4c0.1,0.7,0.1,1.4,0.2,2.2c0.1,1.4,0.2,2.8,0.4,4.2
		c0.2,1.3,0.2,2.7,0.3,4c0.1,1.4,0.2,2.9,0.2,4.3c0,0.7,0,1.3,0,2c0,0.7,0,1.4,0,2.2c0,3,0.1,6,0.2,8.9c0,1.1,0,2.3,0,3.4
		c0,0.6,0,1.2,0,1.8c0,0.6,0,1.3,0,1.9c0,1.1,0,2.3,0,3.4c0,0.5,0,1,0,1.5c0,0.4,0,0.8,0,1.3c0,0.1,0,0.3,0,0.4
		c-0.1,0.3-0.2,0.5-0.4,0.7c-0.3,0.3-0.7,0.5-1.1,0.5c-0.4,0-0.8-0.1-1.1-0.4c-0.3-0.3-0.5-0.7-0.5-1.1c-0.1-0.6-0.1-1.1,0-1.7
		c0-0.7,0-1.4,0-2.1c0-0.8,0-1.6,0-2.3c0-0.8,0-1.6,0-2.3c0-1.6,0.1-3.2,0.1-4.7c0-0.8,0-1.5,0-2.3c0-0.7,0-1.4,0-2.1
		c0-1.5,0-3,0-4.5c0-0.7,0-1.4,0-2.2c0-0.7,0-1.3,0.1-2c0.1-1.4-0.1-2.9-0.1-4.3c0-1.3-0.1-2.7-0.3-4c-0.1-1.5-0.3-3-0.4-4.5
		c-0.1-0.8-0.1-1.6-0.2-2.5c-0.1-0.8-0.2-1.6-0.4-2.5c-0.3-1.5-0.6-2.9-0.8-4.4c-0.2-1.5-0.3-3-0.4-4.5c-0.1-0.7-0.1-1.5-0.2-2.2
		c-0.1-0.8-0.2-1.6-0.3-2.3c-0.2-1.4-0.4-2.8-0.5-4.2c0-0.5,0-1.1,0-1.6c0-0.7,0.1-1.4,0.1-2.1c0.1-1.2,0.3-2.3,0.4-3.5
		c0.1-1.8,0.1-3.7-0.1-5.5c-0.1-0.7-0.3-1.4-0.5-2c-0.2-0.7-0.5-1.5-0.8-2.2c-0.6-1.6-1.2-3.2-1.8-4.8c-0.3-0.8-0.5-1.7-0.6-2.5
		c-0.1-0.8-0.1-1.6,0-2.3c0.1-0.8,0.2-1.6,0.3-2.4c0.1-0.8,0.2-1.5,0.2-2.3c0-0.4,0.1-0.8,0.1-1.2c0-0.4,0.1-0.9,0.1-1.3
		c0-0.4,0-0.9,0-1.3c0-0.8-0.1-1.7-0.3-2.5c-0.3-1.5-0.9-2.8-1.4-4.2c-0.3-0.7-0.6-1.5-1-2.2c-0.3-0.8-0.7-1.6-1-2.4
		c-0.3-0.8-0.6-1.6-0.8-2.4c-0.2-0.9-0.4-1.8-0.4-2.7c-0.1-0.8-0.1-1.6,0-2.3c0-0.8,0.1-1.7,0.2-2.5c0.1-1.7,0.3-3.5,0.3-5.2
		c0-0.9,0.1-1.8,0-2.7c0-0.5-0.1-1-0.1-1.4c0-0.4-0.1-0.8-0.2-1.3c-0.3-1.5-0.7-3-1.1-4.5c-0.4-1.6-0.9-3.2-1.4-4.8
		c-0.2-0.8-0.5-1.6-0.7-2.5c-0.2-0.7-0.4-1.5-0.7-2.2c-0.5-1.7-1.1-3.3-1.6-5c-0.4-1.4-0.9-2.8-1.4-4.1c-0.2-0.7-0.4-1.3-0.6-2
		c-0.2-0.7-0.5-1.4-0.8-2.1c-0.1-0.2-0.2-0.5-0.4-0.7c-0.2-0.3-0.3-0.6-0.2-0.9c0.1-0.3,0.3-0.6,0.5-0.8c0.2-0.1,0.4-0.2,0.7-0.2
		C87.5,67.1,87.6,67.1,87.7,67.1L87.7,67.1L87.7,67.1z"/>
	<path class="st1" d="M90.5,183L90.5,183c-0.2-0.4-0.6-0.6-1.1-0.6c-0.2,0-0.4,0.1-0.6,0.2c-0.6,0.4-0.7,1.1-0.4,1.7
		c0.4,0.6,0.7,1.3,1.1,1.9c0.6,1.2,1.2,2.4,1.8,3.5c0.3,0.6,0.6,1.2,0.9,1.8c0.3,0.6,0.7,1.1,1.1,1.6c0.4,0.6,0.9,1.2,1.4,1.8
		c0.4,0.5,0.8,1,1.2,1.4c0.4,0.5,0.8,0.9,1.2,1.4c0.4,0.4,0.7,0.8,1,1.2c0.4,0.5,0.8,1,1.2,1.4c0.3,0.3,0.7,0.7,1,1
		c0.3,0.3,0.6,0.7,0.9,1c0.2,0.2,0.4,0.5,0.6,0.7c0.6,0.8,1.2,1.7,1.8,2.6c0.3,0.5,0.6,1.1,0.9,1.6c0.1,0.3,0.3,0.5,0.4,0.8
		c0.1,0.2,0.2,0.4,0.3,0.6c0.2,0.3,0.5,0.6,0.9,0.7c0.4,0.1,0.8,0,1.1-0.2c0.7-0.4,0.9-1.3,0.5-2c-0.2-0.4-0.4-0.8-0.6-1.2
		c-0.3-0.5-0.5-1-0.8-1.5c-0.5-0.8-1-1.6-1.6-2.4c-0.3-0.4-0.6-0.9-1-1.3c-0.3-0.3-0.5-0.6-0.8-0.9c-0.3-0.4-0.7-0.7-1-1.1
		c-0.3-0.3-0.7-0.6-1-1c-0.4-0.5-0.8-0.9-1.2-1.4c-0.4-0.5-0.8-1-1.3-1.4c-0.4-0.5-0.9-0.9-1.3-1.4c-0.4-0.4-0.8-0.9-1.2-1.3
		c-0.5-0.6-1-1.3-1.4-2c-0.5-0.8-0.9-1.6-1.3-2.4c-0.4-0.8-0.8-1.6-1.3-2.5C91.4,184.6,90.9,183.8,90.5,183L90.5,183z M98.1,199
		L98.1,199c0.1,0.1,0.1,0.1,0.2,0.2C98.2,199.2,98.1,199.1,98.1,199L98.1,199z"/>
	<path class="st1" d="M94.8,189.8c0.3,0.1,0.5,0.3,0.7,0.5c0.6,0.8,1.1,1.7,1.6,2.7c0.5,0.9,1,1.8,1.6,2.7c0.6,0.8,1.1,1.6,1.7,2.4
		c0.6,0.7,1.1,1.5,1.7,2.2c0.6,0.8,1.2,1.7,1.9,2.5c0.5,0.7,1,1.4,1.6,2.1c0.5,0.7,1,1.3,1.4,2c0.4,0.6,0.8,1.2,1.1,1.8
		c0.1,0.1,0.1,0.2,0.2,0.3c0.3,0.6,0.2,1.4-0.4,1.7c-0.3,0.2-0.6,0.2-1,0.1c-0.1,0-0.2-0.1-0.3-0.1c-0.2-0.1-0.3-0.3-0.5-0.5
		c-0.2-0.2-0.3-0.5-0.4-0.7c-0.2-0.3-0.4-0.6-0.6-0.9c-0.4-0.7-0.9-1.4-1.4-2c-0.5-0.7-1-1.4-1.5-2.1c-0.6-0.8-1.1-1.6-1.7-2.3
		c-0.3-0.4-0.6-0.8-0.9-1.2c-0.3-0.4-0.6-0.9-0.9-1.3c-0.6-0.9-1.3-1.7-1.8-2.6c-0.6-0.9-1.1-1.8-1.6-2.7c-0.5-1-1-2-1.7-3
		c-0.2-0.2-0.2-0.6-0.1-0.9c0.1-0.3,0.3-0.5,0.5-0.7c0.2-0.1,0.4-0.2,0.6-0.2C94.6,189.8,94.7,189.8,94.8,189.8L94.8,189.8
		L94.8,189.8z"/>
	<path class="st1" d="M96.4,187.3c0.2,0.3,0.4,0.6,0.7,0.8c0.2,0.2,0.3,0.5,0.5,0.8c0.3,0.5,0.6,1.1,0.9,1.7
		c0.5,1.1,1.1,2.1,1.7,3.1c0.5,1,1.1,1.9,1.7,2.9c0.5,0.9,1.1,1.7,1.7,2.6c0.4,0.5,0.7,1.1,1.1,1.6c0.4,0.5,0.7,1.1,1.1,1.6
		c0.3,0.5,0.6,1,0.9,1.5c0.3,0.4,0.5,0.9,0.7,1.3c0.2,0.3,0.2,0.6,0.1,0.9c-0.1,0.3-0.3,0.6-0.6,0.7c-0.6,0.4-1.3,0.1-1.7-0.4
		c-0.2-0.3-0.4-0.7-0.6-1c-0.2-0.4-0.5-0.8-0.7-1.3c-0.5-0.8-1-1.7-1.5-2.5c-0.6-0.9-1.1-1.7-1.7-2.6c-0.6-0.9-1.1-1.9-1.7-2.8
		c-0.3-0.5-0.6-1.1-0.9-1.7c-0.3-0.6-0.7-1.2-1-1.8c-0.3-0.6-0.6-1.3-1-1.9c-0.3-0.6-0.7-1.2-1.1-1.8c0-0.1-0.1-0.1-0.1-0.2
		c-0.2-0.2-0.3-0.5-0.3-0.8c0-0.3,0.1-0.6,0.3-0.8c0.2-0.2,0.5-0.3,0.8-0.3c0,0,0,0,0,0C95.9,186.9,96.3,187,96.4,187.3L96.4,187.3
		L96.4,187.3z"/>
	<path class="st1" d="M106.5,179.3L106.5,179.3c-0.1-0.5-0.6-0.8-1-0.8c-0.1,0-0.2,0-0.3,0c-0.6,0.2-0.9,0.8-0.7,1.3
		c0.3,1,0.4,1.9,0.6,2.9c0,0.3,0.1,0.6,0.1,1c0.2,1.6,0.4,3.2,0.6,4.9c0.1,0.9,0.2,1.8,0.3,2.7c0.1,1,0.3,1.9,0.4,2.9
		c0.1,0.9,0.2,1.8,0.3,2.7c0.1,0.9,0.2,1.9,0.2,2.8c0,0.6,0.1,1.1,0.1,1.7c0,0.6,0.1,1.1,0.1,1.7c0,1.2,0,2.3,0,3.5
		c0,1.2,0,2.3-0.1,3.5c0,1.1-0.1,2.3,0,3.4c0,2.3,0.1,4.5,0,6.8c0,0.9,0,1.8-0.1,2.7c0,0.5-0.1,0.9-0.1,1.4
		c-0.7,0.1-1.2,0.6-1.2,1.3c0,0.5,0.1,1,0.3,1.4c0.2,0.3,0.6,0.7,0.9,0.8c0.3,0.1,0.5,0.1,0.9,0c0.4-0.1,0.7-0.3,1-0.6
		c0.2-0.3,0.3-0.5,0.4-0.8c0-0.1,0.1-0.2,0.1-0.2c0.1-0.5,0.2-1,0.3-1.5c0-0.5,0.1-0.9,0.1-1.4c0-0.8,0.1-1.7,0.1-2.5
		c0-1.1,0-2.2,0-3.4c0-2.3-0.1-4.5-0.1-6.8c0.1-2.3,0.1-4.7,0-7c0-1.1-0.2-2.3-0.2-3.4c0-0.6-0.1-1.1-0.1-1.7c0-0.6-0.1-1.2-0.2-1.8
		c-0.1-1-0.2-2-0.4-3c-0.1-0.9-0.3-1.8-0.4-2.7c-0.1-0.5-0.1-1.1-0.2-1.6c0,0,0,0,0,0c0-0.2,0-0.3-0.1-0.5c-0.1-0.7-0.2-1.4-0.3-2.1
		c-0.1-0.9-0.2-1.8-0.4-2.7c-0.1-0.5-0.2-1.1-0.2-1.6c0,0.1,0,0.2,0,0.3C107.1,181.7,106.9,180.5,106.5,179.3L106.5,179.3z
		 M109.1,196.6L109.1,196.6c0,0,0,0.1,0,0.1C109.1,196.7,109.1,196.6,109.1,196.6L109.1,196.6z M108.2,189.8L108.2,189.8
		c0-0.1,0-0.2,0-0.3C108.2,189.6,108.2,189.7,108.2,189.8L108.2,189.8z"/>
</g>
<g>
	<path class="st2" d="M170.1,110c0.1,0,0.2,0,0.4,0c0.4,0,0.8,0.1,1.3,0.1l0,0l0,0l0,0l0.2,0l0.2,0c0.5,0.1,1,0.1,1.5,0.2
		c0.5,0.1,1,0.3,1.5,0.5c0.6,0.2,1.1,0.5,1.5,0.8l0.1,0.1l0.1,0.1c0.7,0.2,1.2,0.7,1.6,1.2c0.2,0.3,0.5,0.6,0.7,0.9l0.1,0.1l0.2,0.2
		c0.3,0.4,0.7,0.9,1.1,1.4c0.2,0.3,0.4,0.7,0.6,1.2c0.4,0.9,0.6,1.8,0.8,2.8c0.1,0.4,0.2,0.8,0.3,1.2l0,0c0.1,0.5,0.2,1,0.3,1.6
		c0.1,0.6,0.2,1.1,0.2,1.6c0,0.4,0,0.8,0,1.4c-0.1,1-0.2,2-0.5,3.2c-0.2,0.9-0.6,1.8-0.9,2.8c-0.1,0.4-0.3,0.7-0.5,1.1l-0.1,0.2
		l-0.1,0.2c-0.2,0.5-0.4,0.9-0.6,1.4c-0.4,0.8-0.9,1.8-1.5,2.8c-0.5,0.9-1.1,1.7-1.7,2.6c-0.7,0.9-1.4,1.8-2.1,2.6
		c-0.7,0.8-1.5,1.7-2.2,2.4c-1.2,1.3-2.6,2.5-3.9,3.7l-0.6,0.6c-1.5,1.3-3.1,2.6-4.9,4c-0.7,0.5-1.4,1.1-2.1,1.6l-0.4,0.3
		c-0.4,0.3-0.7,0.6-1.1,0.8l-0.1,0.1l-0.1,0.1c-0.3,0.3-0.7,0.5-1.1,0.8c-0.3,0.3-0.6,0.5-1,0.8l0,0c-0.5,0.4-1,0.8-1.4,1.2
		c-0.9,0.7-1.7,1.3-2.6,1.9c-0.5,0.3-0.9,0.7-1.2,1l-0.3,0.3c-0.3,0.2-0.5,0.4-0.8,0.6c-0.9,0.7-1.7,1.4-2.4,2l-0.2,0.2l-0.1,0.1
		c-0.3,0.2-0.5,0.5-0.8,0.7c-0.4,0.4-0.8,0.7-1.2,1.1c-0.3,0.3-0.6,0.6-0.9,0.9l-0.2,0.2c-0.4,0.4-0.8,0.8-1.2,1.2
		c-0.5,0.5-1,1-1.5,1.4l-0.8,0.8c-0.1,0.1-0.2,0.2-0.4,0.3l-0.1,0.1c-0.2,0.2-0.4,0.4-0.6,0.6c-0.1,0.1-0.2,0.2-0.3,0.3
		c-0.2,0.2-0.5,0.5-0.7,0.7l0,0c-0.3,0.3-0.7,0.5-1.2,0.5c-0.3,0-0.6-0.1-0.9-0.4c-0.3-0.3-0.3-0.7-0.3-1c0-0.1,0-0.3,0-0.4
		c0-0.1,0-0.1,0-0.2l0-0.2c0,0,0-0.1-0.1-0.1c-0.1-0.2-0.1-0.4-0.1-0.7c0.4-2.2,0.9-4.2,1.4-5.9c0.6-2,1.2-3.9,1.8-6
		c0.2-0.5,0.3-1.1,0.5-1.6c0-0.1,0.1-0.3,0.1-0.4l0-0.1c0.1-0.3,0.2-0.6,0.3-0.9c0.3-1.2,0.6-2.2,1-3.2l0.1-0.2
		c0.3-0.9,0.6-1.8,0.8-2.7c0.3-1,0.6-2,0.9-3c0.7-2.2,1.5-4.5,2-6l0.1-0.2c0.3-0.9,0.6-1.8,1-2.8c0.3-0.8,0.7-1.7,1.2-2.9
		c0.4-0.9,0.8-2,1.3-3c0.4-0.8,0.8-1.7,1.2-2.4l0.3-0.5c0.4-0.9,0.9-1.9,1.5-2.9c0.4-0.8,0.9-1.7,1.5-2.7c0.6-1.1,1.2-1.9,1.8-2.8
		c0.5-0.8,1.1-1.5,1.8-2.4c0.1-0.1,0.2-0.2,0.2-0.3l0,0c0.3-0.3,0.6-0.7,0.9-1.1c0.3-0.4,0.7-0.8,1.1-1.2c0.7-0.7,1.5-1.4,2.3-2l0,0
		l0,0c0.6-0.5,1.3-1,2.2-1.6c0.3-0.2,0.7-0.4,1-0.6c0.4-0.2,0.9-0.4,1.3-0.6c0.9-0.3,1.9-0.4,2.7-0.5C169.7,110,169.9,110,170.1,110
		L170.1,110L170.1,110z"/>
	<path class="st2" d="M116.1,118.6c0.2,0,0.3,0,0.4,0c0.7,0.1,1.3,0.2,1.9,0.4c0.5,0.1,0.9,0.3,1.3,0.5l0.2,0.1
		c0.5,0.2,0.9,0.5,1.4,0.7c0.4,0.2,1,0.5,1.4,0.9c0.7,0.6,1.4,1.3,2.1,2.1c0.7,0.8,1.3,1.7,1.8,2.6c0.4,0.7,1,1.7,1.4,2.7
		c0.4,1,0.8,2,1.2,3.1c0.3,0.8,0.6,1.7,0.8,2.5l0.1,0.3c0.4,1.1,0.6,2.1,0.8,2.9l0.2,0.8c0.2,0.7,0.4,1.5,0.6,2.3c0.2,1,0.5,2,0.7,3
		c0.1,0.6,0.2,1.2,0.3,1.8c0.1,0.4,0.1,0.8,0.2,1.3c0.1,0.4,0.1,0.8,0.2,1.2c0.1,0.6,0.2,1.2,0.3,1.8c0.1,0.6,0.2,1.2,0.3,1.7
		c0,0.2,0.1,0.4,0.1,0.5c0.1,0.3,0.1,0.5,0.1,0.8c0.1,0.6,0.2,1.2,0.2,1.8c0,0.5,0.1,1,0.1,1.4l0,0.2c0,0.4,0,0.9,0,1.3
		c0,0.6-0.1,1.1-0.1,1.7c-0.1,2-0.2,4.1-0.3,6.2c0,0.6,0,1.2-0.1,1.8c0,0.4,0,0.9-0.1,1.3c0,0.9-0.1,1.8-0.2,3
		c-0.1,0.7-0.1,1.5-0.2,2.2c0,0.4-0.1,0.9-0.1,1.3c0,0.3,0,0.6-0.1,0.8c-0.1,0.7-0.1,1.5-0.2,2.2c0.2,0.3,0.2,0.7,0,1.1
		c-0.2,0.3-0.5,0.4-0.7,0.5c-0.1,0-0.2,0-0.3,0.1l-0.1,0c-0.1,0-0.2,0-0.3,0c-0.1,0-0.2,0-0.3,0c-0.2,0-0.3-0.1-0.5-0.2
		c-0.3-0.1-0.5-0.3-0.7-0.5l-0.1,0c-0.5-0.4-0.9-0.9-1.3-1.4l-0.2-0.2c0,0-0.1-0.1-0.1-0.1l0,0c-0.1-0.1-0.1-0.2-0.2-0.2l-0.2-0.2
		c-0.1-0.1-0.2-0.2-0.3-0.4l0,0c0,0,0,0,0,0l0,0l0,0l0,0l0,0l0,0l0,0c-0.3-0.3-0.5-0.7-0.8-1.1c-0.1-0.2-0.2-0.4-0.4-0.6
		c-0.1-0.2-0.3-0.4-0.4-0.6c-0.2-0.4-0.5-0.7-0.7-1.1c-0.3-0.4-0.6-0.8-0.8-1.2c-0.4-0.6-0.7-1.2-1.1-1.8c-0.1-0.2-0.3-0.5-0.4-0.7
		c-0.1-0.2-0.3-0.5-0.5-0.7c-0.4-0.6-0.8-1.2-1.1-1.9l-0.2-0.3c-0.9-1.6-1.8-3.2-2.7-4.9c-0.3-0.6-0.6-1.3-1-1.9l-0.4-0.9
		c-0.2-0.3-0.3-0.7-0.5-1c-0.3-0.6-0.6-1.2-0.9-1.8c-0.3-0.5-0.5-1-0.8-1.6c-0.7-1.4-1.4-2.8-2-4.2c-0.8-1.9-1.6-3.9-2.4-6
		c-0.3-0.9-0.7-1.9-1-2.9c-0.3-1.1-0.5-2.1-0.8-3.2c-0.2-1.1-0.4-2.1-0.6-3c-0.1-0.8-0.3-1.6-0.4-2.4l-0.1-0.6
		c-0.1-0.6-0.2-1.2-0.2-1.8l0-0.1c-0.1-0.5-0.1-1-0.1-1.4c0-0.3,0-0.7,0-1c0-0.7,0.1-1.4,0.3-2.3c0.1-0.6,0.3-1.3,0.6-1.9
		c0.2-0.4,0.5-0.9,0.8-1.4c0.5-0.7,1.2-1.3,1.9-1.8c0.4-0.3,0.8-0.5,1.3-0.7l0.2-0.1c0.1,0,0.2-0.1,0.3-0.1l0.1,0l0.1,0
		c0.1,0,0.1-0.1,0.2-0.1c0.3-0.1,0.5-0.2,0.8-0.2c0.2-0.1,0.4-0.1,0.7-0.1C115.3,118.6,115.7,118.6,116.1,118.6L116.1,118.6
		L116.1,118.6z"/>
	<path class="st2" d="M176.3,160.4L176.3,160.4c-0.4,0-0.8,0-1.1,0c-0.5,0-1.1,0-1.6,0.1c-0.5,0-1,0.1-1.4,0.1l-0.1,0
		c-1.2,0.1-2.2,0.3-3.2,0.5l-0.2,0c-0.9,0.2-1.8,0.4-2.7,0.6c-0.9,0.2-1.9,0.5-2.8,0.9c-0.9,0.3-2,0.8-3.1,1.3
		c-0.4,0.2-0.8,0.4-1.2,0.6l-0.2,0.1c-0.4,0.2-0.8,0.4-1.2,0.7c-0.9,0.5-1.8,1.1-2.7,1.6l-0.2,0.2c-0.7,0.5-1.5,0.9-2.2,1.4
		c-0.4,0.3-0.8,0.5-1.2,0.9c-0.2,0.1-0.4,0.3-0.6,0.4c-0.3,0.2-0.5,0.4-0.8,0.6c-0.6,0.5-1.2,1-1.8,1.5c-0.2,0.2-0.4,0.4-0.6,0.5
		c-0.7,0.6-1.4,1.2-2,1.8l-0.2,0.2c-1.3,1.2-2.7,2.6-4.3,4.3c-0.3,0.4-0.7,0.7-1,1.1c-0.3,0.4-0.7,0.7-1.1,1.1
		c-0.6,0.6-1.4,1.3-2.1,2.1c-0.4,0.4-0.8,0.8-1.1,1.2c-0.3,0.3-0.6,0.6-0.9,0.9c-0.2,0.3-0.5,0.5-0.8,0.8l-0.3,0.3
		c-0.1,0.1-0.2,0.2-0.3,0.3c-0.2,0.2-0.4,0.4-0.6,0.6c-0.1,0-0.2,0-0.3,0.1c-0.2,0-0.3,0.1-0.4,0.2c-0.2,0.1-0.4,0.2-0.5,0.4
		c-0.1,0.2-0.2,0.4-0.1,0.7c0.1,0.3,0.3,0.5,0.6,0.6c0.1,0,0.1,0.1,0.2,0.1c0.2,0.1,0.3,0.1,0.5,0.1c0.1,0,0.2,0,0.3,0l0.2,0
		c0.1,0,0.2,0,0.3,0c0.1,0,0.2,0,0.4,0c0.3,0,0.6-0.1,0.8-0.1l0.2,0c0.2,0,0.5-0.1,0.7-0.1l0,0c0.8-0.1,1.6-0.3,2.4-0.4
		c0.2,0,0.4-0.1,0.6-0.1c0.9-0.2,1.8-0.4,2.6-0.6c0.3-0.1,0.5-0.1,0.8-0.2c0.6-0.2,1.2-0.3,1.8-0.5l0.8-0.3c1.4-0.5,2.8-0.9,4.1-1.5
		c0.6-0.2,1.1-0.5,1.6-0.7c0.3-0.1,0.7-0.3,1-0.4l0.5-0.2c0.3-0.1,0.6-0.3,1-0.4c0.3-0.1,0.7-0.2,1-0.4l0.3-0.1
		c0.5-0.2,0.9-0.3,1.4-0.5c0.2-0.1,0.4-0.1,0.6-0.2c0.2-0.1,0.5-0.2,0.8-0.3c0.2-0.1,0.4-0.1,0.6-0.2c0.3-0.1,0.6-0.2,0.9-0.3
		c0.3-0.1,0.5-0.2,0.8-0.3c0.2-0.1,0.3-0.1,0.5-0.2c0.3-0.1,0.6-0.2,1-0.3c0.2-0.1,0.3-0.1,0.5-0.2l0.1,0c0.4-0.1,0.8-0.3,1.3-0.4
		c1.7-0.5,3.6-1,5.6-1.4c0.4-0.1,0.7-0.2,1.1-0.3c0.6-0.1,1.2-0.3,1.8-0.4c1-0.2,2-0.4,2.8-0.5l0.6-0.1c0.7-0.1,1.4-0.2,2.1-0.3
		c0.5-0.1,1.1-0.2,1.6-0.2c0.3-0.1,0.7-0.1,1-0.2c0.6-0.1,1.3-0.2,1.9-0.3l0.4-0.1c0.8-0.1,1.8-0.2,2.7-0.4c0.2,0,0.4-0.1,0.6-0.1
		c0.7-0.1,1.4-0.2,2.1-0.4c0.5-0.1,1-0.3,1.4-0.4l0,0c0.5-0.2,1-0.4,1.5-0.7c0.4-0.3,0.9-0.6,1.3-1.1c0.2-0.2,0.4-0.5,0.6-0.8
		c0.2-0.3,0.4-0.7,0.5-1.1c0.1-0.4,0.2-0.8,0.3-1.2c0.2-1.1,0.3-2.2,0.1-3.3c-0.1-0.7-0.3-1.2-0.6-1.7c-0.3-0.5-0.7-0.9-1.1-1.3
		c-0.7-0.6-1.5-1.2-2.6-1.7c-0.9-0.4-1.9-0.8-3-1.1c-1.1-0.3-2.2-0.4-3.1-0.6l-0.1,0c-0.5-0.1-1-0.1-1.5-0.2c-0.5,0-1.1-0.1-1.6-0.1
		C177.5,160.4,176.9,160.4,176.3,160.4L176.3,160.4z M178.9,174.6L178.9,174.6l-0.4,0.1L178.9,174.6L178.9,174.6L178.9,174.6
		C178.9,174.6,178.9,174.6,178.9,174.6L178.9,174.6z"/>
	<path class="st2" d="M86.8,157.1c1,0,2,0.1,2.9,0.3c1.2,0.2,2.2,0.4,3,0.7c1.1,0.4,2.2,0.9,3.1,1.4c0.9,0.4,1.7,1,2.5,1.5l0.2,0.1
		c0.4,0.3,0.8,0.6,1.3,0.9c0.4,0.3,0.8,0.7,1.2,1c0.9,0.8,1.8,1.7,2.5,2.4c0.7,0.7,1.4,1.4,2.1,2.1l0.2,0.2c0.7,0.7,1.3,1.4,1.9,2.1
		l0.1,0.1c0.7,0.8,1.3,1.6,1.9,2.4c1.3,1.6,2.5,3.4,3.8,5.3c0.5,0.7,0.9,1.4,1.3,2.1l0.2,0.4c0.4,0.7,0.9,1.4,1.3,2.1l0.3,0.5
		c0.5,0.8,0.9,1.5,1.4,2.3l0.2,0.3c0.5,0.8,1.1,1.8,1.6,2.9c0.4,0.8,0.9,1.7,1.3,2.7c0.2,0.5,0.5,1.1,0.7,1.8
		c0.1,0.3,0.2,0.6,0.3,0.9c0.1,0.1,0.1,0.3,0.2,0.4c0.1,0.3,0.2,0.6,0.3,0.8c0.3,0.7,0.5,1.4,0.8,2.1c0.4,1.2,0.7,2.2,1.1,3.1
		c0.2,0.6,0.5,1.3,0.7,1.9c0.1,0.3,0.3,0.6,0.4,0.9l0.2,0.5c0.3,0.8,0.7,1.7,1,2.5c0.8,2.1,1.4,3.9,2,5.8c0.1,0.3,0.2,0.6,0.2,0.9
		c0.1,0.5-0.2,0.9-0.6,1c-0.1,0-0.1,0-0.2,0c-0.1,0-0.2,0-0.3-0.1c-0.1,0-0.2,0-0.3,0c-0.1,0-0.2,0-0.3,0c-0.3-0.1-0.4-0.2-0.6-0.5
		c-0.1-0.2-0.2-0.3-0.3-0.5c-0.1-0.2-0.2-0.4-0.4-0.5c-0.1-0.1-0.2-0.2-0.3-0.3c-0.1-0.1-0.2-0.2-0.3-0.4c-0.3-0.3-0.5-0.7-0.9-1
		c-0.7-0.7-1.3-1.3-1.9-1.9c-0.5-0.5-1.1-1-1.6-1.5l-0.4-0.4c-0.7-0.6-1.4-1.2-2.2-1.9l-2.4-2c-0.3-0.2-0.6-0.5-0.9-0.8
		c-0.4-0.4-0.9-0.8-1.3-1.1c-0.8-0.7-1.7-1.4-2.5-2.2c-0.7-0.6-1.4-1.2-2.2-1.8c-1-0.8-2.1-1.7-3.2-2.6c-0.1,0-0.1-0.1-0.2-0.1l0,0
		l-0.1-0.1l-0.1-0.1l-0.2-0.1c-0.1,0-0.1-0.1-0.2-0.2c-0.1-0.1-0.2-0.1-0.3-0.2l-0.2-0.1c-0.1-0.1-0.3-0.2-0.4-0.3
		c-0.3-0.2-0.5-0.4-0.8-0.6c-0.8-0.6-1.7-1.1-2.5-1.6l-0.1-0.1c-0.8-0.5-1.6-1-2.6-1.6c-0.3-0.2-0.5-0.3-0.8-0.5
		c-0.6-0.4-1.3-0.7-1.9-1.1l-0.2-0.1c-0.8-0.5-1.6-1-2.4-1.6c-0.9-0.6-1.8-1.3-2.7-2.1c-0.4-0.3-0.7-0.7-1.1-1
		c-0.1-0.1-0.2-0.2-0.3-0.3c-0.2-0.2-0.5-0.5-0.7-0.8c-1.7-1.8-3-3.2-4.1-4.6l0,0c-0.7-0.8-1.4-1.6-2-2.5c-0.6-0.9-1.3-1.8-1.7-2.6
		l-0.1-0.1c-0.3-0.4-0.5-0.8-0.8-1.2l-0.1-0.1c-0.3-0.5-0.6-1-0.9-1.6c-0.5-1.1-0.8-2.3-0.9-3.8c0-0.5,0-1.1,0.1-1.6
		c0.1-0.4,0.1-0.8,0.3-1.2c0.1-0.4,0.3-0.9,0.6-1.3c0.3-0.5,0.5-0.8,0.8-1.1c0.1-0.2,0.3-0.3,0.4-0.4l0.1-0.1
		c0.2-0.2,0.5-0.4,0.7-0.5c0.5-0.4,1.1-0.7,1.8-1c0.5-0.2,0.9-0.3,1.5-0.5c0.8-0.2,1.7-0.2,2.5-0.3
		C86.7,157.1,86.8,157.1,86.8,157.1L86.8,157.1L86.8,157.1z"/>
	<path class="st2" d="M169.7,184.7c0.2,0,0.3,0,0.5,0c1.1,0,2.2,0.3,3.2,0.7c0.6,0.2,1.1,0.5,1.6,0.8c0.5,0.3,1,0.7,1.4,1
		c0.5,0.4,1,1,1.4,1.7c0.3,0.5,0.6,1.1,0.8,1.8c0.1,0.3,0.1,0.6,0.2,0.9l0,0.1c0.1,0.4,0.1,0.8,0.1,1.2l0,0.2c0,0.2,0,0.4,0,0.5
		c0,0.3-0.1,0.7-0.2,1c-0.1,0.5-0.2,1-0.4,1.4c-0.1,0.4-0.3,0.7-0.4,1c-0.1,0.3-0.3,0.5-0.5,0.8c-0.3,0.4-0.6,0.8-1,1.3
		c-0.4,0.4-0.7,0.8-1.1,1.1c-0.3,0.3-0.6,0.5-0.9,0.7l-0.3,0.2c-0.4,0.3-0.9,0.7-1.4,1c-0.8,0.6-1.8,1.1-3,1.5
		c-0.9,0.3-1.8,0.7-2.8,1c-1,0.3-2,0.6-3,0.8c-0.5,0.1-1,0.2-1.5,0.3c-0.5,0.1-0.9,0.1-1.4,0.2l-0.1,0c-0.7,0.1-1.3,0.1-1.8,0.2
		c-0.4,0-0.7,0.1-1.1,0.1l-0.4,0c-1.2,0.1-2.2,0.2-3.1,0.2c-0.5,0.1-1,0.1-1.4,0.2c-0.5,0.1-1,0.1-1.5,0.2c-0.9,0.1-1.8,0.2-2.7,0.3
		l-0.4,0c-0.1,0-0.1,0-0.2,0l0,0c-0.1,0-0.2,0-0.3,0l0,0c-0.1,0-0.2,0-0.2,0c-0.2,0-0.3,0-0.5,0.1l-0.2,0c-0.4,0-0.8,0.1-1.2,0.1
		l-0.3,0c-0.9,0.1-1.8,0.2-2.7,0.3l-0.2,0c-0.4,0-0.7,0.1-1.1,0.1c-0.2,0-0.4,0-0.6,0c-0.2,0-0.4,0-0.6,0c-0.5,0.1-1.1,0.2-1.6,0.2
		l-0.2,0c-0.6,0.1-1.2,0.2-1.8,0.2l-0.3,0c-0.6,0.1-1.2,0.1-1.7,0.3c-0.4,0.1-0.7,0.2-1.1,0.4c-0.2,0.1-0.4,0.2-0.7,0.2l-0.3,0.1
		c-0.3,0.1-0.6,0.2-1,0.3c-0.1,0-0.3,0.1-0.5,0.2l0,0c-0.1,0-0.1,0-0.2,0.1c-0.2,0.1-0.4,0.2-0.7,0.2c-0.1,0-0.2,0-0.3-0.1
		c-0.2-0.1-0.3-0.1-0.4-0.2c-0.1,0-0.2-0.1-0.3-0.1c-0.2-0.1-0.3-0.3-0.4-0.6c0-0.2,0-0.4,0.1-0.6c0.5-0.8,1.2-1.7,1.9-2.6
		c0.6-0.8,1.4-1.6,2-2.3c0.2-0.3,0.5-0.5,0.7-0.8c0.1-0.1,0.2-0.2,0.3-0.3c0.2-0.2,0.5-0.5,0.7-0.7c0.1-0.1,0.3-0.3,0.4-0.4
		c0.7-0.7,1.4-1.4,2.2-2.1c0.8-0.7,1.6-1.4,2.3-2c0.4-0.3,0.8-0.7,1.2-1c0.2-0.1,0.3-0.2,0.5-0.4c0.2-0.2,0.5-0.4,0.7-0.5
		c0.8-0.6,1.7-1.2,2.7-2c0.2-0.1,0.4-0.3,0.6-0.4c0.6-0.4,1.2-0.8,1.8-1.2c1-0.7,1.9-1.2,2.7-1.6c0.9-0.5,1.9-0.9,3-1.3
		c0.8-0.3,1.5-0.6,2.3-0.9l0.6-0.2c0.8-0.3,1.8-0.6,2.9-0.9c0.2-0.1,0.5-0.1,0.7-0.2c0.2-0.1,0.5-0.1,0.7-0.2
		c0.4-0.1,0.7-0.2,1.1-0.3l0.4-0.1c1-0.3,2-0.6,3-0.8c0.6-0.1,1.1-0.2,1.6-0.3c0.5-0.1,1-0.1,1.4-0.2l0.1,0
		C167.8,184.8,168.8,184.7,169.7,184.7L169.7,184.7L169.7,184.7z"/>
	<path class="st3" d="M142.2,164.8c0.5,0.1,0.8,0.6,0.6,1.1c-0.3,0.7-0.6,1.4-1,2.1c-0.4,0.7-0.7,1.4-1.1,2c-0.3,0.6-0.7,1.3-1,1.9
		c-0.3,0.7-0.7,1.4-1,2.1c-0.3,0.7-0.6,1.4-0.9,2.1c-0.3,0.7-0.6,1.3-0.9,2c-0.6,1.3-1.2,2.6-1.8,3.9c-0.4,0.9-0.7,1.8-1.1,2.8
		c-0.4,1-0.8,1.9-1.1,2.9c-0.7,1.9-1.2,3.9-1.7,5.9c-0.1,0.4-0.2,0.9-0.3,1.3c-0.1,0.5-0.2,1-0.3,1.5c-0.2,0.9-0.4,1.8-0.5,2.7
		c0-0.1,0-0.2,0-0.3c-0.1,0.7-0.2,1.4-0.3,2.1c-0.1,0.5-0.1,0.9-0.2,1.4c-0.1,0.5-0.1,1-0.2,1.5c0,0.5-0.1,0.9-0.1,1.4
		c0,0.5,0,0.9,0,1.4c0,0.5,0,1,0,1.5c0,0.5,0,1,0,1.5c0,1,0.1,2,0.1,3c0,1,0,2,0.1,3c0.1,1,0.1,1.9,0.1,2.9c0,1,0.1,2,0.2,3
		c0.1,0.9,0.1,1.9,0.2,2.8c0.1,1,0.1,2.1,0.2,3.1c0,0.5,0.1,1,0.1,1.5c0,0.4,0.1,0.8,0.1,1.2c0,0,0,0,0,0.1c0,0.4,0.1,0.7,0.1,1.1
		c0,0.6-0.5,1.1-1.1,1.1c-0.3,0-0.6-0.1-0.7-0.3c-0.1-0.1-0.1-0.2-0.2-0.2c-0.1-0.2-0.1-0.4-0.1-0.5c0-0.1,0-0.1,0-0.2
		c0-0.3-0.1-0.5-0.1-0.8c0,0,0,0,0,0c0,0,0,0,0,0c0-0.4-0.1-0.8-0.1-1.2c0-0.5-0.1-0.9-0.1-1.4c0-0.5,0-1-0.1-1.5
		c0-0.5-0.1-1-0.1-1.5c-0.1-1-0.1-1.9-0.2-2.9c-0.1-1-0.2-2-0.2-3c0-1-0.1-2-0.1-3c0-1-0.1-1.9-0.1-2.9c0-1,0-2-0.1-3
		c0-0.5,0-1,0-1.5c0-0.5,0-1,0-1.5c0-0.7,0-1.3,0-2c0-0.7,0.1-1.4,0.2-2.1c0-0.3,0.1-0.7,0.1-1c0-0.4,0.1-0.7,0.1-1.1
		c0.1-0.8,0.3-1.5,0.4-2.2c0,0.1,0,0.2,0,0.3c0.2-1.1,0.3-2.1,0.6-3.2c0.2-1,0.5-2.1,0.7-3.1c0.5-2,1-3.9,1.8-5.8
		c0.2-0.5,0.4-1,0.6-1.5c0.2-0.5,0.4-0.9,0.5-1.4c0.4-1,0.8-2,1.2-3c0.4-1,0.9-1.9,1.3-2.9c0.5-1,0.9-1.9,1.4-2.8
		c0.4-0.8,0.7-1.6,1.1-2.4c0.4-0.8,0.8-1.7,1.2-2.5c0.4-0.8,0.8-1.5,1.3-2.3c0.2-0.4,0.4-0.8,0.7-1.2c0.2-0.3,0.4-0.7,0.5-1
		c0.1-0.2,0.1-0.3,0.2-0.5c0.1-0.4,0.5-0.7,0.9-0.7C142,164.7,142.1,164.7,142.2,164.8L142.2,164.8L142.2,164.8z"/>
	<path class="st3" d="M145.6,199.8L145.6,199.8c-0.1,0-0.2,0-0.3,0c-0.2,0-0.4,0.1-0.5,0.1c0,0-0.1,0-0.1,0c-0.7,0.3-1.3,0.5-2,0.8
		c-0.1,0-0.1,0-0.2,0.1c-0.7,0.3-1.3,0.6-2,0.9c-0.7,0.4-1.5,0.7-2.2,1.1c-0.7,0.4-1.4,0.7-2.1,1.1c-0.9,0.5-1.7,1-2.5,1.5
		c-0.9,0.6-1.7,1.2-2.5,1.9c-0.8,0.6-1.5,1.2-2.2,1.9c-0.3,0.3-0.6,0.6-0.8,0.9c-0.2,0.2-0.3,0.4-0.5,0.6c-0.1,0.2-0.2,0.4-0.3,0.5
		c-0.2,0.4-0.1,0.9,0.3,1.2c0.4,0.2,1,0.1,1.2-0.3c0.1-0.2,0.2-0.5,0.4-0.7c0.3-0.4,0.7-0.7,1-1c0.4-0.4,0.8-0.7,1.3-1
		c0.9-0.7,1.9-1.3,2.8-2c1.6-1.1,3.4-2,5.1-2.9c0.4-0.2,0.8-0.4,1.3-0.6c0.5-0.2,0.9-0.4,1.4-0.6c0.2-0.1,0.5-0.2,0.7-0.3
		c0.2-0.1,0.4-0.1,0.6-0.2c0.1,0,0.2-0.1,0.2-0.1c0,0,0.1,0,0.1,0c0,0,0,0,0,0c0.3-0.1,0.6-0.2,0.9-0.3c0.4-0.1,0.8-0.3,1.1-0.5
		c0.5-0.3,0.7-0.9,0.4-1.4C146.1,200,145.8,199.9,145.6,199.8L145.6,199.8z M144,202.4L144,202.4c-0.1,0-0.1,0-0.2,0.1
		C143.9,202.5,144,202.4,144,202.4L144,202.4z"/>
	<path class="st3" d="M119.8,198.5c0.2,0,0.6,0.1,0.7,0.3c0.4,0.5,0.7,1,1.1,1.6c0.3,0.5,0.6,1,1,1.4c0.5,0.7,1.1,1.3,1.7,2
		c0.6,0.7,1.1,1.4,1.6,2.2c0.5,0.8,0.9,1.6,1.3,2.4c0.2,0.4,0.4,0.7,0.6,1c0.2,0.3,0.3,0.6,0.5,0.8c0.1,0.1,0.2,0.3,0.3,0.4
		c0.2,0.2,0.3,0.4,0.3,0.7c0,0.2-0.1,0.5-0.3,0.7c-0.4,0.3-1,0.4-1.4,0c-0.8-0.9-1.4-1.9-2-3c-0.3-0.5-0.6-1.1-0.9-1.6
		c-0.3-0.5-0.6-0.9-1-1.4c-0.4-0.5-0.8-0.9-1.2-1.3c-0.4-0.5-0.8-1-1.2-1.5c-0.4-0.5-0.8-1.1-1.2-1.6c-0.3-0.5-0.7-1-1-1.5
		c-0.2-0.4-0.1-0.9,0.2-1.2C119.3,198.6,119.5,198.5,119.8,198.5C119.8,198.5,119.8,198.5,119.8,198.5L119.8,198.5L119.8,198.5z"/>
	<path class="st3" d="M156.9,172.8c0.3,0,0.5,0.1,0.7,0.3c0.4,0.4,0.4,1.1,0,1.5c-0.3,0.3-0.7,0.7-1.1,1c-0.4,0.3-0.8,0.6-1.2,0.9
		c-0.8,0.5-1.6,1-2.4,1.5c-1.7,1-3.4,2-5.1,3c-0.6,0.4-1.2,0.7-1.8,1c-0.3,0.2-0.6,0.3-1,0.5c-0.3,0.2-0.7,0.3-1,0.4
		c-1.4,0.6-2.8,1-4.1,1.5c-0.8,0.4-1.7,0.7-2.5,1.1c-0.4,0.2-0.9,0.4-1.3,0.7c-0.4,0.2-0.7,0.5-1.1,0.7c-0.3,0.2-0.6,0.5-0.9,0.7
		c-0.3,0.2-0.5,0.5-0.7,0.8c-0.2,0.2-0.3,0.5-0.5,0.7c-0.2,0.2-0.3,0.4-0.5,0.5c-0.3,0.3-0.8,0.3-1.1,0c-0.3-0.3-0.3-0.8,0-1.1
		c0.1-0.1,0.3-0.3,0.4-0.4c0.1-0.1,0.2-0.3,0.3-0.4c0.2-0.3,0.4-0.5,0.6-0.7c0.3-0.4,0.6-0.7,0.9-1c0.8-0.7,1.6-1.3,2.5-1.8
		c1.7-1,3.6-1.7,5.5-2.4c0.3-0.1,0.6-0.2,0.8-0.3c0.8-0.3,1.7-0.7,2.5-1.1c0.8-0.5,1.6-0.9,2.4-1.4c0.8-0.5,1.7-1.1,2.6-1.6
		c0.8-0.5,1.7-1,2.5-1.5c0.9-0.5,1.8-1.1,2.6-1.7c0.5-0.4,0.9-0.7,1.4-1.1C156.3,172.9,156.6,172.8,156.9,172.8
		C156.8,172.8,156.8,172.8,156.9,172.8L156.9,172.8L156.9,172.8z"/>
	<path class="st3" d="M127.4,156.6c0.2,0.1,0.5,0.3,0.6,0.5c0.4,0.9,0.7,1.9,1,2.9c0.3,0.9,0.6,1.9,0.9,2.8c0.5,1.9,1,3.9,1.5,5.8
		c0.1,0.5,0.2,1,0.3,1.5c0.1,0.5,0.2,0.9,0.3,1.4c0.1,0.5,0.2,1,0.3,1.5c0.1,0.5,0.2,1,0.2,1.5c0.1,0.5,0.1,0.9,0.2,1.4
		c0.1,0.5,0.1,1,0.2,1.4c0.1,0.5,0.2,1.1,0.2,1.6c0.1,0.5,0.1,1,0.1,1.4c0,0.7,0,1.4,0,2.1c0,0.7,0,1.4,0,2.1c0,0.4-0.1,0.8-0.2,1.2
		c0,0.3-0.1,0.7-0.2,1c-0.1,0.4-0.2,0.7-0.4,1.1c-0.2,0.3-0.3,0.6-0.5,0.9c-0.2,0.4-0.7,0.5-1.1,0.3c-0.4-0.2-0.5-0.8-0.3-1.1
		c0.2-0.3,0.3-0.6,0.5-0.8c0.2-0.5,0.3-1,0.4-1.5c0.1-0.5,0.1-1,0.1-1.5c0-0.5,0-1-0.1-1.5c0-1-0.1-2.1-0.2-3.1
		c-0.1-0.9-0.3-1.8-0.4-2.7c-0.2-1-0.3-2-0.5-3c-0.2-0.9-0.4-1.9-0.7-2.8c-0.1-0.5-0.2-0.9-0.3-1.4c-0.1-0.5-0.3-1-0.4-1.5
		c-0.2-0.8-0.4-1.7-0.7-2.5c-0.2-0.9-0.5-1.7-0.7-2.6c-0.3-0.9-0.5-1.7-0.8-2.6c-0.1-0.4-0.3-0.9-0.4-1.3c-0.1-0.4-0.2-0.8-0.4-1.1
		c-0.1-0.5,0.1-1,0.5-1.2c0.2-0.1,0.3-0.1,0.5-0.1C127.2,156.6,127.3,156.6,127.4,156.6L127.4,156.6L127.4,156.6z"/>
</g>
</svg>
